<svg id="svg" version="1.1" xmlns="http://www.w3.org/2000/svg" xmlns:xlink="http://www.w3.org/1999/xlink" width="400" height="400" viewBox="0, 0, 400,400"><g id="svgg"><path id="path0" d="M206.138 7.906 C 205.884 8.068,237.422 8.200,276.223 8.200 C 315.024 8.200,346.462 8.078,346.085 7.928 C 345.153 7.558,206.719 7.536,206.138 7.906 M362.400 16.583 C 362.400 16.743,362.760 17.331,363.200 17.891 C 363.640 18.450,364.000 18.777,364.000 18.617 C 364.000 18.457,363.640 17.869,363.200 17.309 C 362.760 16.750,362.400 16.423,362.400 16.583 M349.070 25.893 C 348.968 26.062,349.135 26.432,349.442 26.716 C 349.900 27.139,350.000 27.126,350.000 26.639 C 350.000 25.960,349.347 25.436,349.070 25.893 M183.600 30.200 C 183.600 30.530,183.780 30.800,184.000 30.800 C 184.220 30.800,184.400 30.530,184.400 30.200 C 184.400 29.870,184.220 29.600,184.000 29.600 C 183.780 29.600,183.600 29.870,183.600 30.200 M351.800 75.800 C 351.800 100.728,351.935 121.040,352.100 120.938 C 352.488 120.698,352.482 31.548,352.094 30.938 C 351.932 30.684,351.800 50.872,351.800 75.800 M367.793 76.000 C 367.793 100.530,367.841 110.565,367.900 98.300 C 367.959 86.035,367.959 65.965,367.900 53.700 C 367.841 41.435,367.793 51.470,367.793 76.000 M160.800 40.000 C 160.800 40.220,161.070 40.400,161.400 40.400 C 161.730 40.400,162.000 40.220,162.000 40.000 C 162.000 39.780,161.730 39.600,161.400 39.600 C 161.070 39.600,160.800 39.780,160.800 40.000 M232.091 55.900 L 232.182 64.200 232.300 56.100 L 232.417 48.000 260.000 48.000 L 287.583 48.000 287.700 56.100 L 287.818 64.200 287.909 55.900 L 288.000 47.600 260.000 47.600 L 232.000 47.600 232.091 55.900 M315.492 47.900 L 327.583 48.012 327.700 56.106 L 327.818 64.200 327.909 55.900 L 328.000 47.600 315.700 47.694 L 303.400 47.788 315.492 47.900 M159.200 56.408 C 159.200 56.650,159.647 56.708,160.300 56.551 C 161.870 56.175,161.923 56.000,160.467 56.000 C 159.770 56.000,159.200 56.183,159.200 56.408 M113.398 60.402 C 112.353 61.557,112.817 61.671,113.992 60.548 C 114.537 60.027,114.790 59.600,114.554 59.600 C 114.317 59.600,113.797 59.961,113.398 60.402 M232.091 95.900 L 232.182 104.200 232.300 96.106 L 232.417 88.012 244.508 87.900 L 256.600 87.788 244.300 87.694 L 232.000 87.600 232.091 95.900 M272.091 95.900 L 272.182 104.200 272.300 96.100 L 272.417 88.000 300.000 88.000 L 327.583 88.000 327.700 96.100 L 327.818 104.200 327.909 95.900 L 328.000 87.600 300.000 87.600 L 272.000 87.600 272.091 95.900 M97.800 97.200 C 97.650 97.673,97.617 98.150,97.727 98.260 C 97.837 98.370,98.050 98.073,98.200 97.600 C 98.350 97.127,98.383 96.650,98.273 96.540 C 98.163 96.430,97.950 96.727,97.800 97.200 M113.293 108.000 C 113.293 108.770,113.375 109.085,113.476 108.700 C 113.576 108.315,113.576 107.685,113.476 107.300 C 113.375 106.915,113.293 107.230,113.293 108.000 M97.346 111.800 C 97.347 114.000,97.414 114.849,97.495 113.687 C 97.576 112.524,97.576 110.724,97.493 109.687 C 97.411 108.649,97.345 109.600,97.346 111.800 M97.444 121.800 C 97.773 123.271,98.002 123.590,97.994 122.567 C 97.991 122.145,97.805 121.530,97.582 121.200 C 97.285 120.762,97.248 120.924,97.444 121.800 M209.400 127.875 C 216.077 128.151,233.485 128.174,233.063 127.906 C 232.808 127.744,226.750 127.645,219.600 127.686 C 212.450 127.726,207.860 127.811,209.400 127.875 M271.062 127.900 C 270.895 128.169,320.398 128.160,338.000 127.888 C 341.850 127.829,328.406 127.740,308.124 127.690 C 287.842 127.641,271.164 127.735,271.062 127.900 M365.800 130.000 C 365.936 130.220,365.846 130.400,365.600 130.400 C 365.354 130.400,365.276 130.599,365.426 130.843 C 365.617 131.151,365.804 131.121,366.044 130.743 C 366.510 130.008,366.486 129.600,365.976 129.600 C 365.743 129.600,365.664 129.780,365.800 130.000 M360.845 136.621 L 359.490 137.993 360.700 137.390 C 361.547 136.967,363.017 134.930,362.263 135.224 C 362.228 135.238,361.590 135.866,360.845 136.621 M258.153 171.799 C 257.027 172.994,256.397 173.812,256.753 173.617 C 257.683 173.106,261.040 169.597,260.583 169.613 C 260.372 169.620,259.279 170.604,258.153 171.799 M225.676 181.166 C 225.768 181.477,226.284 182.006,226.822 182.341 C 227.580 182.814,227.665 182.821,227.200 182.375 C 226.870 182.059,226.354 181.530,226.054 181.200 C 225.615 180.717,225.541 180.710,225.676 181.166 M128.131 196.200 C 128.133 197.740,128.205 198.321,128.292 197.491 C 128.379 196.661,128.377 195.401,128.289 194.691 C 128.200 193.981,128.129 194.660,128.131 196.200 M127.867 199.467 C 127.505 199.828,127.528 201.108,127.900 201.338 C 128.065 201.440,128.200 201.001,128.200 200.362 C 128.200 199.723,128.185 199.200,128.167 199.200 C 128.148 199.200,128.013 199.320,127.867 199.467 M112.828 207.476 C 112.918 208.515,113.544 209.396,113.572 208.524 C 113.587 208.042,113.420 207.536,113.200 207.400 C 112.980 207.264,112.813 207.298,112.828 207.476 M114.000 216.600 C 114.000 216.930,114.180 217.200,114.400 217.200 C 114.620 217.200,114.800 216.930,114.800 216.600 C 114.800 216.270,114.620 216.000,114.400 216.000 C 114.180 216.000,114.000 216.270,114.000 216.600 M218.590 222.830 C 218.205 224.045,218.594 224.170,219.126 223.002 C 219.377 222.451,219.419 222.000,219.218 222.000 C 219.018 222.000,218.735 222.374,218.590 222.830 M215.853 227.700 L 215.133 229.000 215.958 228.000 C 216.689 227.113,217.014 226.400,216.686 226.400 C 216.624 226.400,216.249 226.985,215.853 227.700 M211.879 232.533 C 211.263 233.170,210.826 233.759,210.908 233.842 C 210.991 233.924,211.572 233.455,212.200 232.800 C 212.828 232.145,213.265 231.556,213.171 231.492 C 213.077 231.428,212.496 231.896,211.879 232.533 M207.724 238.600 C 207.726 239.920,207.801 240.412,207.890 239.693 C 207.979 238.974,207.977 237.894,207.886 237.293 C 207.795 236.692,207.722 237.280,207.724 238.600 M127.780 256.800 C 127.780 264.610,127.834 267.805,127.899 263.900 C 127.965 259.995,127.965 253.605,127.899 249.700 C 127.834 245.795,127.780 248.990,127.780 256.800 M207.646 272.876 C 207.621 273.908,207.742 274.841,207.916 274.948 C 208.090 275.056,208.170 274.482,208.093 273.672 C 207.859 271.198,207.695 270.907,207.646 272.876 M122.911 277.535 C 122.553 278.160,121.898 278.835,121.456 279.035 C 121.014 279.236,120.573 279.647,120.476 279.949 C 120.223 280.742,122.537 278.952,123.569 277.557 C 124.039 276.921,124.230 276.400,123.993 276.400 C 123.757 276.400,123.270 276.911,122.911 277.535 M213.200 284.927 C 213.200 285.674,213.852 286.162,214.168 285.652 C 214.291 285.453,214.123 285.068,213.796 284.796 C 213.311 284.394,213.200 284.419,213.200 284.927 M244.800 288.824 C 244.800 289.057,244.980 289.136,245.200 289.000 C 245.420 288.864,245.600 288.954,245.600 289.200 C 245.600 289.446,245.799 289.524,246.043 289.374 C 246.351 289.183,246.321 288.996,245.943 288.756 C 245.208 288.290,244.800 288.314,244.800 288.824 M218.400 290.778 C 218.400 290.999,218.940 291.459,219.600 291.800 C 220.260 292.141,220.800 292.360,220.800 292.285 C 220.800 292.211,220.260 291.751,219.600 291.263 C 218.940 290.775,218.400 290.557,218.400 290.778 M232.800 300.757 C 232.800 301.264,234.377 302.156,234.701 301.832 C 234.829 301.705,234.736 301.600,234.495 301.600 C 234.254 301.600,233.774 301.317,233.429 300.971 C 233.083 300.626,232.800 300.529,232.800 300.757 M116.200 302.210 C 115.320 302.752,114.759 303.197,114.953 303.198 C 115.363 303.200,118.000 301.616,118.000 301.367 C 118.000 301.113,117.921 301.151,116.200 302.210 M286.713 307.695 C 287.179 308.256,288.800 308.938,288.800 308.573 C 288.800 308.489,288.215 308.118,287.500 307.748 C 286.401 307.180,286.279 307.172,286.713 307.695 M56.600 312.027 C 55.940 312.450,55.605 312.797,55.856 312.798 C 56.106 312.799,56.736 312.446,57.256 312.013 C 58.445 311.023,58.159 311.029,56.600 312.027 M267.371 316.609 C 267.795 316.929,268.240 317.094,268.359 316.974 C 268.610 316.723,267.594 316.009,267.000 316.019 C 266.780 316.022,266.947 316.288,267.371 316.609 M47.424 317.813 C 46.425 318.568,46.795 318.563,48.254 317.802 C 48.884 317.474,49.130 317.210,48.800 317.215 C 48.470 317.221,47.851 317.490,47.424 317.813 M277.771 321.409 C 278.195 321.729,278.640 321.894,278.759 321.774 C 279.010 321.523,277.994 320.809,277.400 320.819 C 277.180 320.822,277.347 321.088,277.771 321.409 M40.344 323.566 C 39.825 323.987,39.504 324.436,39.632 324.564 C 39.759 324.692,40.286 324.348,40.801 323.798 C 41.915 322.613,41.672 322.490,40.344 323.566 M314.434 326.606 C 317.008 329.576,317.707 330.252,317.139 329.220 C 316.522 328.099,315.823 327.329,314.400 326.204 L 313.400 325.413 314.434 326.606 M33.156 330.900 C 32.686 331.795,32.688 331.796,33.542 331.038 C 34.495 330.191,34.582 330.000,34.014 330.000 C 33.802 330.000,33.416 330.405,33.156 330.900 M50.600 336.196 L 49.400 337.189 50.700 336.565 C 51.415 336.222,52.000 335.775,52.000 335.571 C 52.000 335.057,51.952 335.078,50.600 336.196 M303.573 338.928 C 304.328 339.731,305.021 340.313,305.113 340.221 C 305.400 339.933,304.825 339.271,303.488 338.352 L 302.200 337.467 303.573 338.928 M46.744 339.900 C 45.308 341.634,45.102 342.000,45.564 342.000 C 45.817 342.000,46.137 341.685,46.273 341.300 C 46.410 340.915,46.792 340.285,47.123 339.900 C 47.453 339.515,47.634 339.200,47.524 339.200 C 47.414 339.200,47.063 339.515,46.744 339.900 M40.512 367.895 C 41.564 367.977,43.184 367.976,44.112 367.892 C 45.040 367.808,44.180 367.741,42.200 367.742 C 40.220 367.743,39.460 367.812,40.512 367.895 M53.900 367.893 C 54.835 367.977,56.365 367.977,57.300 367.893 C 58.235 367.809,57.470 367.740,55.600 367.740 C 53.730 367.740,52.965 367.809,53.900 367.893 M66.700 367.893 C 67.635 367.977,69.165 367.977,70.100 367.893 C 71.035 367.809,70.270 367.740,68.400 367.740 C 66.530 367.740,65.765 367.809,66.700 367.893 M79.900 367.893 C 80.835 367.977,82.365 367.977,83.300 367.893 C 84.235 367.809,83.470 367.740,81.600 367.740 C 79.730 367.740,78.965 367.809,79.900 367.893 M92.912 367.895 C 93.964 367.977,95.584 367.976,96.512 367.892 C 97.440 367.808,96.580 367.741,94.600 367.742 C 92.620 367.743,91.860 367.812,92.912 367.895 M105.900 367.893 C 106.835 367.977,108.365 367.977,109.300 367.893 C 110.235 367.809,109.470 367.740,107.600 367.740 C 105.730 367.740,104.965 367.809,105.900 367.893 M119.100 367.893 C 120.035 367.977,121.565 367.977,122.500 367.893 C 123.435 367.809,122.670 367.740,120.800 367.740 C 118.930 367.740,118.165 367.809,119.100 367.893 M131.900 367.893 C 132.835 367.977,134.365 367.977,135.300 367.893 C 136.235 367.809,135.470 367.740,133.600 367.740 C 131.730 367.740,130.965 367.809,131.900 367.893 M145.100 367.893 C 146.035 367.977,147.565 367.977,148.500 367.893 C 149.435 367.809,148.670 367.740,146.800 367.740 C 144.930 367.740,144.165 367.809,145.100 367.893 M158.112 367.895 C 159.164 367.977,160.784 367.976,161.712 367.892 C 162.640 367.808,161.780 367.741,159.800 367.742 C 157.820 367.743,157.060 367.812,158.112 367.895 M171.100 367.893 C 172.035 367.977,173.565 367.977,174.500 367.893 C 175.435 367.809,174.670 367.740,172.800 367.740 C 170.930 367.740,170.165 367.809,171.100 367.893 M184.300 367.893 C 185.235 367.977,186.765 367.977,187.700 367.893 C 188.635 367.809,187.870 367.740,186.000 367.740 C 184.130 367.740,183.365 367.809,184.300 367.893 M197.100 367.893 C 198.035 367.977,199.565 367.977,200.500 367.893 C 201.435 367.809,200.670 367.740,198.800 367.740 C 196.930 367.740,196.165 367.809,197.100 367.893 M210.300 367.893 C 211.235 367.977,212.765 367.977,213.700 367.893 C 214.635 367.809,213.870 367.740,212.000 367.740 C 210.130 367.740,209.365 367.809,210.300 367.893 M223.312 367.895 C 224.364 367.977,225.984 367.976,226.912 367.892 C 227.840 367.808,226.980 367.741,225.000 367.742 C 223.020 367.743,222.260 367.812,223.312 367.895 M236.300 367.893 C 237.235 367.977,238.765 367.977,239.700 367.893 C 240.635 367.809,239.870 367.740,238.000 367.740 C 236.130 367.740,235.365 367.809,236.300 367.893 M249.500 367.893 C 250.435 367.977,251.965 367.977,252.900 367.893 C 253.835 367.809,253.070 367.740,251.200 367.740 C 249.330 367.740,248.565 367.809,249.500 367.893 M262.300 367.893 C 263.235 367.977,264.765 367.977,265.700 367.893 C 266.635 367.809,265.870 367.740,264.000 367.740 C 262.130 367.740,261.365 367.809,262.300 367.893 M275.500 367.893 C 276.435 367.977,277.965 367.977,278.900 367.893 C 279.835 367.809,279.070 367.740,277.200 367.740 C 275.330 367.740,274.565 367.809,275.500 367.893 M288.512 367.895 C 289.564 367.977,291.184 367.976,292.112 367.892 C 293.040 367.808,292.180 367.741,290.200 367.742 C 288.220 367.743,287.460 367.812,288.512 367.895 M301.500 367.893 C 302.435 367.977,303.965 367.977,304.900 367.893 C 305.835 367.809,305.070 367.740,303.200 367.740 C 301.330 367.740,300.565 367.809,301.500 367.893 M314.300 367.889 C 315.015 367.978,316.185 367.978,316.900 367.889 C 317.615 367.801,317.030 367.728,315.600 367.728 C 314.170 367.728,313.585 367.801,314.300 367.889 M336.040 379.900 C 336.018 380.835,336.180 381.600,336.400 381.600 C 336.861 381.600,336.861 380.639,336.400 379.200 C 336.128 378.350,336.074 378.456,336.040 379.900 " stroke="none" fill="#545454" fill-rule="evenodd"></path><path id="path1" d="M208.462 8.196 C 208.724 8.457,345.263 8.471,345.524 8.209 C 345.634 8.099,314.795 8.006,276.993 8.002 C 239.191 7.999,208.352 8.086,208.462 8.196 M353.600 9.945 C 353.600 10.152,354.275 10.703,355.100 11.170 C 356.508 11.967,356.539 11.969,355.600 11.209 C 355.050 10.764,354.375 10.213,354.100 9.984 C 353.816 9.748,353.600 9.731,353.600 9.945 M190.678 15.413 C 190.060 15.956,189.714 16.400,189.908 16.400 C 190.102 16.400,190.683 15.950,191.200 15.400 C 192.395 14.128,192.131 14.134,190.678 15.413 M348.092 25.275 C 348.291 25.873,349.200 26.202,349.200 25.676 C 349.200 25.461,348.915 25.176,348.567 25.043 C 348.177 24.893,347.994 24.982,348.092 25.275 M202.129 26.100 C 201.004 27.350,200.678 28.000,201.176 28.000 C 201.409 28.000,201.600 27.787,201.600 27.526 C 201.600 27.265,201.991 26.635,202.470 26.126 C 202.948 25.617,203.249 25.200,203.139 25.200 C 203.029 25.200,202.575 25.605,202.129 26.100 M183.600 75.976 C 183.600 105.663,183.737 121.238,184.000 121.400 C 184.266 121.564,184.400 106.404,184.400 76.224 C 184.400 46.208,184.264 30.800,184.000 30.800 C 183.736 30.800,183.600 46.125,183.600 75.976 M162.000 40.000 C 162.000 40.220,162.360 40.400,162.800 40.400 C 163.240 40.400,163.600 40.220,163.600 40.000 C 163.600 39.780,163.240 39.600,162.800 39.600 C 162.360 39.600,162.000 39.780,162.000 40.000 M174.009 42.646 C 174.021 43.113,175.580 45.100,175.591 44.663 C 175.596 44.478,175.240 43.869,174.800 43.309 C 174.360 42.750,174.004 42.451,174.009 42.646 M246.100 48.300 C 253.745 48.361,266.255 48.361,273.900 48.300 C 281.545 48.239,275.290 48.189,260.000 48.189 C 244.710 48.189,238.455 48.239,246.100 48.300 M309.500 48.299 C 312.855 48.366,318.345 48.366,321.700 48.299 C 325.055 48.232,322.310 48.178,315.600 48.178 C 308.890 48.178,306.145 48.232,309.500 48.299 M303.600 56.200 C 303.600 60.867,303.748 63.600,304.000 63.600 C 304.252 63.600,304.400 60.867,304.400 56.200 C 304.400 51.533,304.252 48.800,304.000 48.800 C 303.748 48.800,303.600 51.533,303.600 56.200 M121.700 53.212 C 121.205 53.411,120.800 53.764,120.800 53.996 C 120.800 54.230,121.246 54.126,121.800 53.763 C 122.350 53.403,122.800 53.039,122.800 52.954 C 122.800 52.767,122.817 52.763,121.700 53.212 M171.600 54.990 C 170.638 55.531,170.634 55.550,171.490 55.492 C 171.979 55.459,172.468 55.199,172.577 54.916 C 172.816 54.294,172.843 54.292,171.600 54.990 M115.616 58.187 C 114.685 58.964,114.166 59.595,114.462 59.588 C 115.079 59.575,117.771 57.238,117.492 56.958 C 117.390 56.857,116.546 57.410,115.616 58.187 M108.100 67.585 C 106.875 69.139,106.956 69.609,108.200 68.162 C 108.749 67.523,109.199 66.865,109.200 66.700 C 109.200 66.247,109.078 66.346,108.100 67.585 M126.993 68.931 C 126.146 69.663,125.621 70.354,125.827 70.466 C 126.032 70.578,126.806 69.979,127.546 69.135 C 129.202 67.248,129.019 67.181,126.993 68.931 M121.800 75.600 C 121.936 75.820,121.857 76.000,121.624 76.000 C 121.391 76.000,121.200 76.202,121.200 76.449 C 121.200 76.759,121.385 76.744,121.800 76.400 C 122.497 75.822,122.588 75.200,121.976 75.200 C 121.743 75.200,121.664 75.380,121.800 75.600 M118.386 81.901 C 117.545 83.587,117.540 83.600,117.747 83.600 C 118.005 83.600,119.242 81.108,119.069 80.936 C 118.995 80.862,118.688 81.296,118.386 81.901 M101.267 82.380 C 101.033 83.051,100.927 83.600,101.031 83.600 C 101.301 83.600,102.056 81.522,101.857 81.324 C 101.767 81.233,101.501 81.708,101.267 82.380 M238.300 88.299 C 241.655 88.366,247.145 88.366,250.500 88.299 C 253.855 88.232,251.110 88.178,244.400 88.178 C 237.690 88.178,234.945 88.232,238.300 88.299 M286.100 88.300 C 293.745 88.361,306.255 88.361,313.900 88.300 C 321.545 88.239,315.290 88.189,300.000 88.189 C 284.710 88.189,278.455 88.239,286.100 88.300 M255.600 96.200 C 255.600 100.867,255.748 103.600,256.000 103.600 C 256.252 103.600,256.400 100.867,256.400 96.200 C 256.400 91.533,256.252 88.800,256.000 88.800 C 255.748 88.800,255.600 91.533,255.600 96.200 M113.449 101.015 C 113.312 101.373,113.218 102.056,113.241 102.533 C 113.267 103.081,113.403 102.886,113.610 102.003 C 113.960 100.516,113.865 99.933,113.449 101.015 M97.496 101.733 C 97.033 102.879,97.116 103.844,97.634 103.326 C 97.872 103.088,98.006 102.467,97.930 101.946 C 97.809 101.113,97.757 101.088,97.496 101.733 M113.052 106.500 C 112.725 107.720,112.788 117.628,113.128 118.485 C 113.278 118.862,113.400 116.117,113.400 112.385 C 113.400 108.653,113.376 105.600,113.347 105.600 C 113.317 105.600,113.185 106.005,113.052 106.500 M97.206 120.100 C 97.220 121.242,97.988 121.826,97.994 120.700 C 97.997 120.095,97.820 119.600,97.600 119.600 C 97.380 119.600,97.203 119.825,97.206 120.100 M113.206 123.033 C 113.209 123.675,113.384 124.470,113.595 124.800 C 113.855 125.209,113.899 124.890,113.732 123.800 C 113.429 121.823,113.198 121.486,113.206 123.033 M202.200 125.950 C 202.860 126.582,203.469 127.038,203.554 126.962 C 203.790 126.752,201.854 124.815,201.400 124.807 C 201.180 124.804,201.540 125.318,202.200 125.950 M97.606 125.500 C 97.624 126.377,98.388 126.959,98.394 126.100 C 98.397 125.605,98.220 125.200,98.000 125.200 C 97.780 125.200,97.603 125.335,97.606 125.500 M206.745 128.106 C 206.914 128.274,212.800 128.364,219.826 128.305 L 232.600 128.199 219.520 128.000 C 212.325 127.890,206.577 127.938,206.745 128.106 M308.600 128.000 L 272.200 128.206 308.900 128.303 C 333.165 128.367,345.600 128.264,345.600 128.000 C 345.600 127.780,345.465 127.644,345.300 127.697 C 345.135 127.750,328.620 127.887,308.600 128.000 M268.700 128.465 C 268.095 128.686,267.600 129.016,267.600 129.199 C 267.600 129.381,268.140 129.327,268.800 129.078 C 269.668 128.750,270.684 127.784,269.900 128.032 C 269.845 128.049,269.305 128.244,268.700 128.465 M265.133 131.633 C 264.767 132.018,264.571 132.437,264.697 132.564 C 264.824 132.691,265.188 132.424,265.505 131.972 C 266.238 130.925,266.007 130.716,265.133 131.633 M262.231 137.900 C 261.829 138.300,260.754 140.887,260.921 141.055 C 260.994 141.127,261.424 140.379,261.878 139.393 C 262.719 137.566,262.765 137.370,262.231 137.900 M197.338 141.647 C 198.184 142.093,198.965 142.368,199.075 142.258 C 199.328 142.005,197.013 140.794,196.320 140.818 C 196.034 140.827,196.492 141.200,197.338 141.647 M273.600 150.305 C 273.600 150.546,273.375 150.988,273.100 151.287 C 272.325 152.131,271.559 153.600,271.897 153.597 C 272.331 153.593,274.110 150.377,273.832 150.099 C 273.704 149.971,273.600 150.064,273.600 150.305 M242.806 152.233 C 242.809 152.875,242.984 153.670,243.195 154.000 C 243.455 154.409,243.499 154.090,243.332 153.000 C 243.029 151.023,242.798 150.686,242.806 152.233 M227.200 158.176 C 227.200 159.659,227.374 160.800,227.600 160.800 C 227.822 160.800,228.000 159.741,228.000 158.424 C 228.000 157.117,227.820 155.936,227.600 155.800 C 227.349 155.645,227.200 156.529,227.200 158.176 M101.834 159.300 L 101.208 160.600 102.004 159.656 C 102.442 159.136,102.800 158.551,102.800 158.356 C 102.800 157.672,102.454 158.010,101.834 159.300 M99.900 161.585 C 99.515 161.960,99.319 162.386,99.464 162.531 C 99.609 162.676,99.988 162.424,100.305 161.972 C 101.041 160.920,100.809 160.699,99.900 161.585 M245.000 162.000 C 244.864 162.220,244.403 162.400,243.976 162.400 C 243.549 162.400,243.200 162.550,243.200 162.733 C 243.200 163.336,244.383 163.081,245.060 162.333 C 245.425 161.930,245.617 161.600,245.486 161.600 C 245.354 161.600,245.136 161.780,245.000 162.000 M262.555 166.612 C 262.190 167.169,261.987 167.721,262.104 167.837 C 262.221 167.954,262.592 167.499,262.928 166.825 C 263.668 165.340,263.465 165.224,262.555 166.612 M97.326 167.100 C 97.189 167.485,97.004 167.935,96.915 168.100 C 96.826 168.265,96.922 168.400,97.130 168.400 C 97.337 168.400,97.593 167.950,97.698 167.400 C 97.918 166.249,97.693 166.068,97.326 167.100 M116.000 166.800 C 116.000 167.020,115.752 167.200,115.449 167.200 C 115.146 167.200,114.678 167.465,114.409 167.789 C 113.992 168.291,114.102 168.288,115.152 167.764 C 116.463 167.110,117.125 166.400,116.424 166.400 C 116.191 166.400,116.000 166.580,116.000 166.800 M112.390 171.426 C 111.968 172.537,111.871 173.463,112.212 173.121 C 112.515 172.819,113.181 170.400,112.962 170.400 C 112.862 170.400,112.605 170.862,112.390 171.426 M96.229 171.829 C 96.081 172.415,96.051 172.984,96.161 173.094 C 96.271 173.204,96.481 172.815,96.629 172.229 C 96.776 171.642,96.806 171.073,96.696 170.963 C 96.586 170.853,96.376 171.242,96.229 171.829 M258.095 171.466 C 257.818 171.578,257.388 172.059,257.141 172.535 C 256.720 173.345,256.759 173.338,257.746 172.430 C 258.326 171.897,258.800 171.402,258.800 171.330 C 258.800 171.184,258.793 171.185,258.095 171.466 M111.600 176.376 C 111.600 177.463,111.766 178.456,111.969 178.581 C 112.180 178.711,112.317 177.864,112.287 176.605 C 112.223 173.868,111.600 173.661,111.600 176.376 M223.600 175.976 C 223.600 176.403,223.780 176.864,224.000 177.000 C 224.227 177.140,224.400 176.804,224.400 176.224 C 224.400 175.661,224.220 175.200,224.000 175.200 C 223.780 175.200,223.600 175.549,223.600 175.976 M252.945 176.200 C 252.818 176.530,252.464 176.800,252.157 176.800 C 251.851 176.800,251.600 176.986,251.600 177.214 C 251.600 177.811,253.046 176.977,253.340 176.211 C 253.469 175.875,253.485 175.600,253.375 175.600 C 253.265 175.600,253.071 175.870,252.945 176.200 M96.244 181.000 C 96.573 182.471,96.802 182.790,96.794 181.767 C 96.791 181.345,96.605 180.730,96.382 180.400 C 96.085 179.962,96.048 180.124,96.244 181.000 M235.200 183.618 C 234.762 183.915,234.924 183.952,235.800 183.756 C 237.271 183.427,237.590 183.198,236.567 183.206 C 236.145 183.209,235.530 183.395,235.200 183.618 M115.852 188.716 C 115.562 189.186,116.702 190.231,117.086 189.847 C 117.232 189.701,117.069 189.298,116.724 188.952 C 116.349 188.578,115.996 188.482,115.852 188.716 M123.600 192.400 C 123.600 192.620,124.095 192.797,124.700 192.794 C 125.557 192.789,125.668 192.702,125.200 192.400 C 124.417 191.894,123.600 191.894,123.600 192.400 M127.849 193.015 C 127.712 193.373,127.629 195.046,127.663 196.733 L 127.727 199.800 127.996 196.200 C 128.278 192.418,128.257 191.953,127.849 193.015 M100.859 195.200 C 100.841 195.530,101.090 196.149,101.413 196.576 C 101.925 197.254,102.000 197.266,102.000 196.676 C 102.000 196.304,101.833 196.000,101.629 196.000 C 101.425 196.000,101.176 195.685,101.076 195.300 C 100.948 194.810,100.883 194.780,100.859 195.200 M102.751 198.079 C 102.930 198.563,103.302 199.034,103.578 199.126 C 103.900 199.233,103.834 198.918,103.394 198.247 C 102.557 196.969,102.317 196.907,102.751 198.079 M127.606 202.233 C 127.609 202.875,127.784 203.670,127.995 204.000 C 128.255 204.409,128.299 204.090,128.132 203.000 C 127.829 201.023,127.598 200.686,127.606 202.233 M112.800 206.553 C 112.800 206.883,112.980 207.264,113.200 207.400 C 113.420 207.536,113.600 207.377,113.600 207.047 C 113.600 206.717,113.420 206.336,113.200 206.200 C 112.980 206.064,112.800 206.223,112.800 206.553 M223.600 207.000 C 223.600 207.330,223.780 207.600,224.000 207.600 C 224.220 207.600,224.400 207.330,224.400 207.000 C 224.400 206.670,224.220 206.400,224.000 206.400 C 223.780 206.400,223.600 206.670,223.600 207.000 M132.766 222.511 C 133.328 223.988,134.381 226.000,134.592 226.000 C 134.799 226.000,133.002 222.069,132.620 221.687 C 132.472 221.538,132.537 221.909,132.766 222.511 M234.756 226.500 C 234.286 227.395,234.288 227.396,235.142 226.638 C 236.095 225.791,236.182 225.600,235.614 225.600 C 235.402 225.600,235.016 226.005,234.756 226.500 M233.294 229.500 C 232.912 230.325,232.374 231.239,232.097 231.531 C 231.234 232.444,230.725 233.600,231.186 233.600 C 231.414 233.600,231.600 233.387,231.600 233.126 C 231.600 232.865,231.923 232.280,232.317 231.826 C 233.082 230.944,234.521 228.000,234.187 228.000 C 234.077 228.000,233.675 228.675,233.294 229.500 M213.200 231.278 C 213.200 231.541,212.705 232.305,212.100 232.977 L 211.000 234.197 212.137 233.199 C 213.475 232.023,214.228 230.800,213.614 230.800 C 213.386 230.800,213.200 231.015,213.200 231.278 M120.590 233.101 C 121.781 235.406,121.994 235.726,121.989 235.200 C 121.985 234.870,121.611 234.150,121.156 233.600 C 120.702 233.050,120.447 232.826,120.590 233.101 M208.200 235.906 C 207.732 236.250,207.534 269.866,207.981 273.000 C 208.138 274.100,208.342 266.135,208.433 255.300 C 208.525 244.465,208.600 235.603,208.600 235.606 C 208.600 235.609,208.420 235.744,208.200 235.906 M226.202 239.198 C 225.803 239.639,225.662 240.000,225.889 240.000 C 226.392 240.000,227.390 238.857,227.121 238.588 C 227.015 238.482,226.602 238.756,226.202 239.198 M126.000 240.702 C 126.000 240.922,126.270 241.326,126.600 241.600 C 126.935 241.878,127.200 241.921,127.200 241.698 C 127.200 241.478,126.930 241.074,126.600 240.800 C 126.265 240.522,126.000 240.479,126.000 240.702 M127.902 251.700 C 127.958 256.815,128.054 263.250,128.115 266.000 C 128.176 268.750,128.265 264.565,128.313 256.700 C 128.361 248.835,128.265 242.400,128.100 242.400 C 127.935 242.399,127.846 246.584,127.902 251.700 M143.731 245.000 C 143.733 246.540,143.805 247.121,143.892 246.291 C 143.979 245.461,143.977 244.201,143.889 243.491 C 143.800 242.781,143.729 243.460,143.731 245.000 M143.776 261.200 C 143.776 267.470,143.832 270.035,143.899 266.900 C 143.967 263.765,143.967 258.635,143.899 255.500 C 143.832 252.365,143.776 254.930,143.776 261.200 M127.021 272.224 C 126.652 272.788,126.437 273.463,126.543 273.724 C 126.650 273.986,126.751 273.885,126.768 273.500 C 126.786 273.115,126.959 272.800,127.153 272.800 C 127.348 272.800,127.601 272.440,127.716 272.000 C 127.994 270.938,127.829 270.991,127.021 272.224 M228.800 277.902 C 228.800 278.122,229.070 278.526,229.400 278.800 C 229.735 279.078,230.000 279.121,230.000 278.898 C 230.000 278.678,229.730 278.274,229.400 278.000 C 229.065 277.722,228.800 277.679,228.800 277.902 M138.555 284.212 C 138.190 284.769,137.964 285.298,138.053 285.387 C 138.142 285.476,138.518 285.020,138.889 284.374 C 139.714 282.936,139.469 282.817,138.555 284.212 M136.481 286.818 C 136.172 287.313,136.146 287.600,136.409 287.600 C 136.638 287.600,136.932 287.322,137.062 286.983 C 137.422 286.045,137.033 285.934,136.481 286.818 M241.400 287.410 C 242.953 288.367,243.600 288.602,243.600 288.209 C 243.600 288.003,240.395 286.392,240.025 286.412 C 239.901 286.419,240.520 286.868,241.400 287.410 M216.769 288.800 C 217.478 289.790,218.180 290.603,218.329 290.606 C 218.965 290.620,219.592 291.289,219.345 291.689 C 219.185 291.949,219.263 292.009,219.538 291.838 C 220.147 291.462,220.298 291.684,217.740 289.197 L 215.480 287.000 216.769 288.800 M108.100 287.865 C 107.825 287.976,107.600 288.254,107.600 288.482 C 107.600 288.755,107.785 288.745,108.137 288.452 C 108.432 288.207,108.792 288.125,108.937 288.270 C 109.082 288.415,109.200 288.323,109.200 288.067 C 109.200 287.578,108.933 287.529,108.100 287.865 M261.009 296.313 C 261.647 296.859,263.670 297.637,263.426 297.242 C 263.303 297.042,262.620 296.676,261.910 296.429 C 261.199 296.181,260.794 296.129,261.009 296.313 M227.121 297.430 C 227.616 297.776,228.241 297.971,228.510 297.861 C 228.791 297.748,228.701 297.650,228.300 297.632 C 227.915 297.614,227.600 297.420,227.600 297.200 C 227.600 296.980,227.290 296.800,226.911 296.800 C 226.348 296.800,226.386 296.915,227.121 297.430 M265.600 298.400 C 265.930 298.613,266.470 298.788,266.800 298.788 C 267.333 298.788,267.333 298.745,266.800 298.400 C 266.470 298.187,265.930 298.012,265.600 298.012 C 265.067 298.012,265.067 298.055,265.600 298.400 M237.600 303.334 C 237.600 303.437,238.181 303.724,238.891 303.972 C 239.601 304.219,240.006 304.257,239.791 304.056 C 239.335 303.629,237.600 303.058,237.600 303.334 M242.400 305.582 C 242.400 305.975,243.949 306.584,244.232 306.301 C 244.326 306.207,243.953 305.925,243.402 305.674 C 242.851 305.423,242.400 305.381,242.400 305.582 M247.371 307.809 C 247.795 308.129,248.240 308.294,248.359 308.174 C 248.610 307.923,247.594 307.209,247.000 307.219 C 246.780 307.222,246.947 307.488,247.371 307.809 M62.412 308.784 C 61.434 309.403,62.127 309.576,63.201 308.981 C 63.780 308.661,63.948 308.425,63.600 308.420 C 63.270 308.416,62.735 308.580,62.412 308.784 M256.970 311.952 C 257.090 312.145,257.595 312.406,258.094 312.532 C 258.968 312.752,258.973 312.740,258.224 312.180 C 257.364 311.538,256.632 311.404,256.970 311.952 M92.500 312.634 C 91.785 312.946,91.200 313.282,91.200 313.380 C 91.200 313.675,93.584 312.749,93.824 312.361 C 94.091 311.929,94.129 311.921,92.500 312.634 M297.046 313.375 C 297.278 313.980,298.400 314.567,298.400 314.084 C 298.400 313.923,298.047 313.572,297.615 313.302 C 296.968 312.898,296.868 312.911,297.046 313.375 M47.100 318.264 C 46.495 318.583,46.000 319.026,46.000 319.249 C 46.000 319.568,47.369 318.816,48.767 317.730 C 49.207 317.387,48.076 317.750,47.100 318.264 M75.900 320.032 C 75.515 320.256,75.200 320.605,75.200 320.807 C 75.200 321.350,76.302 320.831,76.557 320.169 C 76.812 319.503,76.810 319.502,75.900 320.032 M42.926 321.603 C 42.446 321.796,41.837 322.370,41.574 322.877 C 41.111 323.772,41.119 323.778,41.848 323.082 C 42.262 322.687,42.960 322.107,43.400 321.794 C 44.310 321.147,44.184 321.096,42.926 321.603 M72.200 321.678 C 71.760 321.927,71.310 322.247,71.200 322.389 C 71.090 322.530,70.411 322.884,69.691 323.175 C 68.972 323.466,68.290 323.855,68.175 324.040 C 67.964 324.382,69.966 323.526,72.300 322.276 C 73.544 321.610,73.942 321.186,73.300 321.212 C 73.135 321.219,72.640 321.428,72.200 321.678 M310.217 323.218 C 310.596 323.638,311.066 323.883,311.260 323.763 C 311.769 323.448,311.346 322.931,310.369 322.676 C 309.564 322.465,309.557 322.489,310.217 323.218 M38.681 325.037 C 38.286 325.567,38.129 326.000,38.332 326.000 C 38.851 326.000,39.704 324.904,39.538 324.450 C 39.462 324.243,39.077 324.507,38.681 325.037 M286.000 325.490 C 286.000 325.665,286.360 326.032,286.800 326.307 C 287.243 326.584,287.600 326.633,287.600 326.417 C 287.600 326.203,287.240 325.835,286.800 325.600 C 286.360 325.365,286.000 325.315,286.000 325.490 M314.001 326.600 C 314.551 327.260,315.045 327.875,315.100 327.967 C 315.155 328.058,315.288 328.045,315.396 327.938 C 315.504 327.830,315.009 327.215,314.297 326.571 L 313.003 325.400 314.001 326.600 M62.321 327.336 C 62.027 327.630,61.519 327.976,61.193 328.104 C 60.695 328.300,60.702 328.342,61.238 328.368 C 61.589 328.386,62.202 328.040,62.600 327.600 C 63.403 326.712,63.168 326.489,62.321 327.336 M34.799 329.002 C 34.283 329.551,34.044 330.000,34.268 330.000 C 34.779 330.000,36.198 328.465,35.932 328.199 C 35.825 328.091,35.314 328.452,34.799 329.002 M32.539 331.788 C 32.077 332.111,31.596 332.786,31.470 333.288 C 31.246 334.175,31.255 334.178,31.802 333.400 C 32.110 332.960,32.673 332.285,33.052 331.900 C 33.891 331.046,33.668 330.997,32.539 331.788 M301.200 336.352 C 301.200 336.822,303.564 338.569,303.834 338.299 C 303.937 338.196,303.387 337.627,302.611 337.035 C 301.835 336.444,301.200 336.136,301.200 336.352 M325.843 341.769 C 325.964 342.082,326.315 342.435,326.625 342.554 C 327.089 342.732,327.102 342.632,326.698 341.985 C 326.132 341.080,325.519 340.925,325.843 341.769 M317.701 367.229 C 317.900 367.800,304.897 367.855,176.322 367.829 C 98.443 367.813,34.516 367.932,34.262 368.094 C 34.008 368.256,97.734 368.391,175.876 368.394 C 318.907 368.400,319.427 368.395,317.986 367.065 C 317.595 366.704,317.531 366.740,317.701 367.229 M16.200 372.000 C 16.048 372.691,16.014 373.347,16.124 373.457 C 16.234 373.567,16.448 373.091,16.600 372.400 C 16.752 371.709,16.786 371.053,16.676 370.943 C 16.566 370.833,16.352 371.309,16.200 372.000 M335.600 375.000 C 335.600 375.330,335.780 375.600,336.000 375.600 C 336.220 375.600,336.400 375.330,336.400 375.000 C 336.400 374.670,336.220 374.400,336.000 374.400 C 335.780 374.400,335.600 374.670,335.600 375.000 M16.101 377.000 C 16.105 377.880,16.187 378.193,16.283 377.695 C 16.379 377.198,16.375 376.478,16.275 376.095 C 16.175 375.713,16.096 376.120,16.101 377.000 M336.000 382.176 C 336.000 382.493,336.180 382.864,336.400 383.000 C 336.620 383.136,336.800 382.877,336.800 382.424 C 336.800 381.971,336.620 381.600,336.400 381.600 C 336.180 381.600,336.000 381.859,336.000 382.176 " stroke="none" fill="#242424" fill-rule="evenodd"></path><path id="path2" d="M190.715 14.812 C 190.141 15.465,189.805 16.000,189.966 16.000 C 190.394 16.000,192.171 14.038,191.947 13.814 C 191.843 13.709,191.288 14.158,190.715 14.812 M351.793 76.000 C 351.793 100.750,351.841 110.875,351.900 98.500 C 351.959 86.125,351.959 65.875,351.900 53.500 C 351.841 41.125,351.793 51.250,351.793 76.000 M368.193 76.000 C 368.193 100.750,368.241 110.875,368.300 98.500 C 368.359 86.125,368.359 65.875,368.300 53.500 C 368.241 41.125,368.193 51.250,368.193 76.000 M159.200 40.000 C 159.200 40.220,159.560 40.400,160.000 40.400 C 160.440 40.400,160.800 40.220,160.800 40.000 C 160.800 39.780,160.440 39.600,160.000 39.600 C 159.560 39.600,159.200 39.780,159.200 40.000 M288.169 55.800 C 288.170 60.420,288.228 62.255,288.299 59.878 C 288.370 57.501,288.369 53.721,288.298 51.478 C 288.227 49.235,288.169 51.180,288.169 55.800 M328.169 55.800 C 328.170 60.420,328.228 62.255,328.299 59.878 C 328.370 57.501,328.369 53.721,328.298 51.478 C 328.227 49.235,328.169 51.180,328.169 55.800 M231.769 56.000 C 231.769 60.510,231.827 62.355,231.898 60.100 C 231.970 57.845,231.970 54.155,231.898 51.900 C 231.827 49.645,231.769 51.490,231.769 56.000 M328.169 95.800 C 328.170 100.420,328.228 102.255,328.299 99.878 C 328.370 97.501,328.369 93.721,328.298 91.478 C 328.227 89.235,328.169 91.180,328.169 95.800 M231.769 96.000 C 231.769 100.510,231.827 102.355,231.898 100.100 C 231.970 97.845,231.970 94.155,231.898 91.900 C 231.827 89.645,231.769 91.490,231.769 96.000 M271.769 96.000 C 271.769 100.510,271.827 102.355,271.898 100.100 C 271.970 97.845,271.970 94.155,271.898 91.900 C 271.827 89.645,271.769 91.490,271.769 96.000 M96.950 111.800 C 96.951 114.220,97.016 115.158,97.096 113.885 C 97.176 112.612,97.175 110.632,97.094 109.485 C 97.014 108.338,96.949 109.380,96.950 111.800 M113.331 112.600 C 113.333 114.140,113.405 114.721,113.492 113.891 C 113.579 113.061,113.577 111.801,113.489 111.091 C 113.400 110.381,113.329 111.060,113.331 112.600 M360.000 137.800 C 359.722 138.135,359.679 138.400,359.902 138.400 C 360.122 138.400,360.526 138.130,360.800 137.800 C 361.078 137.465,361.121 137.200,360.898 137.200 C 360.678 137.200,360.274 137.470,360.000 137.800 M103.837 200.200 C 104.479 201.180,105.200 201.531,105.200 200.862 C 105.200 200.470,103.870 199.200,103.459 199.200 C 103.307 199.200,103.476 199.650,103.837 200.200 M144.183 257.400 C 144.183 266.420,144.235 270.167,144.299 265.727 C 144.364 261.287,144.364 253.907,144.300 249.327 C 144.235 244.747,144.183 248.380,144.183 257.400 M224.154 242.177 C 224.032 242.494,224.003 243.079,224.089 243.477 C 224.187 243.928,224.324 243.712,224.454 242.900 C 224.671 241.538,224.530 241.196,224.154 242.177 M316.800 328.702 C 316.800 328.922,317.070 329.326,317.400 329.600 C 317.735 329.878,318.000 329.921,318.000 329.698 C 318.000 329.478,317.730 329.074,317.400 328.800 C 317.065 328.522,316.800 328.479,316.800 328.702 M299.443 335.367 C 299.576 335.715,299.861 336.000,300.076 336.000 C 300.602 336.000,300.273 335.091,299.675 334.892 C 299.382 334.794,299.293 334.977,299.443 335.367 M50.000 337.000 C 49.722 337.335,49.679 337.600,49.902 337.600 C 50.122 337.600,50.526 337.330,50.800 337.000 C 51.078 336.665,51.121 336.400,50.898 336.400 C 50.678 336.400,50.274 336.670,50.000 337.000 M47.062 339.931 C 46.333 340.737,46.172 341.388,46.798 341.001 C 47.215 340.743,48.139 339.200,47.876 339.200 C 47.792 339.200,47.426 339.529,47.062 339.931 " stroke="none" fill="#949494" fill-rule="evenodd"></path><path id="path3" d="M204.400 8.403 C 204.400 8.742,204.018 8.824,203.200 8.660 C 202.481 8.516,202.000 8.587,202.000 8.837 C 202.000 9.072,201.651 9.143,201.200 9.000 C 200.723 8.849,200.400 8.928,200.400 9.197 C 200.400 9.444,200.220 9.536,200.000 9.400 C 199.780 9.264,199.600 9.324,199.600 9.533 C 199.600 9.742,199.182 10.018,198.671 10.146 C 198.160 10.275,197.080 10.829,196.271 11.378 C 195.462 11.927,194.795 12.246,194.788 12.088 C 194.781 11.930,194.592 12.115,194.368 12.500 C 194.144 12.885,193.609 13.200,193.180 13.200 C 192.751 13.200,192.400 13.436,192.400 13.725 C 192.400 14.383,190.330 16.400,189.655 16.400 C 189.379 16.400,189.260 16.573,189.391 16.785 C 189.522 16.997,189.278 17.522,188.848 17.952 C 188.418 18.382,188.167 18.834,188.291 18.957 C 188.414 19.080,188.220 19.294,187.860 19.432 C 187.499 19.571,187.304 19.845,187.426 20.042 C 187.548 20.239,187.427 20.400,187.157 20.400 C 186.887 20.400,186.784 20.518,186.928 20.661 C 187.072 20.805,186.845 21.480,186.424 22.161 C 186.003 22.843,185.629 23.531,185.594 23.691 C 185.290 25.069,185.054 25.600,184.746 25.600 C 184.547 25.600,184.498 26.050,184.636 26.600 C 184.774 27.150,184.732 27.600,184.543 27.600 C 184.354 27.600,184.200 49.322,184.200 76.000 C 184.200 103.032,184.353 124.400,184.547 124.400 C 184.737 124.400,184.808 124.845,184.704 125.388 C 184.601 125.931,184.670 126.281,184.858 126.164 C 185.046 126.048,185.200 126.222,185.200 126.550 C 185.200 126.879,185.409 127.655,185.665 128.274 C 185.920 128.893,186.100 129.535,186.065 129.700 C 186.029 129.865,186.191 130.000,186.424 130.000 C 186.657 130.000,186.736 130.180,186.600 130.400 C 186.464 130.620,186.531 130.800,186.749 130.800 C 186.968 130.800,187.272 131.205,187.427 131.700 C 187.581 132.195,187.876 132.708,188.081 132.840 C 188.285 132.972,188.495 133.368,188.547 133.720 C 188.599 134.072,189.127 134.742,189.721 135.209 C 190.314 135.676,190.800 136.315,190.800 136.629 C 190.800 136.943,191.033 137.200,191.318 137.200 C 191.602 137.200,192.592 137.906,193.518 138.769 C 194.443 139.632,195.200 140.277,195.200 140.203 C 195.200 140.129,196.325 140.626,197.700 141.308 C 199.075 141.989,200.425 142.506,200.700 142.456 C 200.975 142.406,201.200 142.547,201.200 142.770 C 201.200 142.993,201.461 143.075,201.781 142.952 C 202.100 142.829,202.586 142.868,202.861 143.037 C 203.753 143.589,205.256 143.688,215.376 143.859 C 225.289 144.026,226.598 144.218,226.133 145.429 C 226.013 145.743,226.133 146.000,226.401 146.000 C 226.719 146.000,226.800 146.344,226.636 147.000 C 226.486 147.598,226.556 148.000,226.811 148.000 C 227.078 148.000,227.142 148.504,226.982 149.354 C 226.823 150.202,226.900 150.815,227.188 150.993 C 227.497 151.184,227.562 151.968,227.384 153.390 C 227.212 154.767,227.273 155.598,227.560 155.775 C 228.107 156.114,228.148 160.800,227.603 160.800 C 227.385 160.800,227.216 161.745,227.227 162.900 C 227.260 166.477,227.182 167.200,226.759 167.200 C 226.534 167.200,226.382 167.515,226.421 167.900 C 226.460 168.285,226.449 168.735,226.396 168.900 C 226.343 169.065,226.255 169.380,226.200 169.600 C 226.145 169.820,226.055 170.090,226.000 170.200 C 225.884 170.432,225.799 170.671,225.401 171.896 C 225.240 172.388,224.952 172.694,224.759 172.575 C 224.567 172.456,224.516 172.638,224.647 172.979 C 224.778 173.321,224.731 173.600,224.543 173.600 C 224.354 173.600,224.200 174.680,224.200 176.000 C 224.200 177.320,224.350 178.400,224.533 178.400 C 224.717 178.400,224.794 178.618,224.705 178.885 C 224.452 179.645,227.877 182.805,229.600 183.400 C 229.710 183.438,230.111 183.606,230.491 183.774 C 230.871 183.941,232.131 183.967,233.291 183.831 C 234.451 183.695,235.940 183.538,236.600 183.482 C 237.260 183.427,238.025 183.240,238.300 183.067 C 238.575 182.894,239.000 182.876,239.245 183.028 C 239.489 183.179,239.818 183.095,239.975 182.841 C 240.132 182.587,240.831 182.339,241.529 182.289 C 242.227 182.240,242.799 182.046,242.799 181.857 C 242.800 181.669,243.070 181.618,243.400 181.745 C 243.730 181.871,244.000 181.790,244.000 181.564 C 244.000 181.338,244.180 181.264,244.400 181.400 C 244.620 181.536,244.803 181.412,244.806 181.124 C 244.811 180.743,244.918 180.764,245.200 181.200 C 245.535 181.718,245.589 181.709,245.594 181.131 C 245.598 180.728,246.139 180.284,246.958 180.014 C 247.704 179.768,248.811 179.140,249.418 178.619 C 250.024 178.098,250.763 177.764,251.060 177.878 C 251.375 177.999,251.600 177.818,251.600 177.443 C 251.600 177.089,251.771 176.800,251.979 176.800 C 252.188 176.800,252.844 176.350,253.438 175.800 C 254.031 175.250,254.761 174.800,255.058 174.800 C 255.356 174.800,255.600 174.616,255.600 174.392 C 255.600 173.890,261.131 168.400,261.636 168.400 C 261.836 168.400,262.000 168.122,262.000 167.782 C 262.000 167.442,262.458 166.705,263.019 166.145 C 263.579 165.585,264.503 164.423,265.072 163.563 C 265.641 162.703,266.262 162.000,266.453 162.000 C 266.644 162.000,266.800 161.822,266.800 161.604 C 266.800 161.091,270.378 155.842,270.847 155.666 C 271.044 155.592,271.103 155.367,270.979 155.166 C 270.855 154.965,270.973 154.800,271.243 154.800 C 271.513 154.800,271.618 154.685,271.477 154.544 C 271.218 154.285,272.227 152.218,273.043 151.336 C 273.286 151.073,274.003 149.629,274.635 148.129 C 275.266 146.628,275.923 145.340,276.094 145.266 C 276.265 145.192,276.303 144.967,276.179 144.766 C 275.825 144.193,274.395 144.226,311.600 143.950 C 346.875 143.688,348.889 143.644,349.406 143.128 C 349.556 142.978,349.931 142.952,350.239 143.070 C 350.548 143.189,350.800 143.092,350.800 142.855 C 350.800 142.619,351.070 142.529,351.400 142.655 C 351.730 142.782,352.000 142.667,352.000 142.400 C 352.000 142.133,352.258 142.014,352.574 142.135 C 352.890 142.256,353.208 142.177,353.280 141.960 C 353.353 141.742,353.814 141.534,354.306 141.497 C 354.798 141.460,355.200 141.306,355.200 141.154 C 355.200 140.916,357.546 139.306,358.545 138.858 C 358.891 138.703,362.800 134.739,362.800 134.544 C 362.800 134.268,365.408 130.583,365.686 130.466 C 365.862 130.392,365.903 130.167,365.779 129.966 C 365.655 129.765,365.738 129.600,365.964 129.600 C 366.190 129.600,366.271 129.330,366.145 129.000 C 366.018 128.670,366.069 128.400,366.257 128.399 C 366.446 128.399,366.640 127.827,366.689 127.129 C 366.739 126.431,366.970 125.742,367.203 125.598 C 367.436 125.454,367.515 125.044,367.378 124.687 C 367.241 124.330,367.242 123.856,367.379 123.634 C 367.697 123.119,367.702 28.889,367.384 28.375 C 367.255 28.165,367.262 27.634,367.401 27.196 C 367.556 26.710,367.471 26.400,367.184 26.400 C 366.910 26.400,366.821 26.122,366.971 25.732 C 367.112 25.365,367.023 24.938,366.774 24.784 C 366.526 24.630,366.294 24.031,366.261 23.453 C 366.227 22.874,366.054 22.400,365.876 22.400 C 365.698 22.400,365.664 22.220,365.800 22.000 C 365.936 21.780,365.827 21.600,365.557 21.600 C 365.287 21.600,365.178 21.489,365.314 21.352 C 365.450 21.216,365.345 20.862,365.081 20.566 C 364.055 19.418,363.600 18.826,363.600 18.642 C 363.600 18.536,363.068 17.867,362.419 17.156 C 361.769 16.445,361.312 15.743,361.402 15.597 C 361.493 15.450,361.281 14.923,360.932 14.424 C 360.540 13.865,360.196 13.683,360.032 13.948 C 359.864 14.219,359.376 14.014,358.701 13.388 C 358.115 12.845,357.447 12.400,357.217 12.400 C 356.988 12.400,356.800 12.220,356.800 12.000 C 356.800 11.780,356.665 11.641,356.500 11.692 C 356.134 11.804,352.800 9.943,352.799 9.626 C 352.799 9.502,352.222 9.379,351.517 9.353 C 350.812 9.328,350.168 9.103,350.085 8.854 C 349.996 8.588,349.534 8.502,348.967 8.644 C 348.338 8.802,348.000 8.715,348.000 8.397 C 348.000 8.083,347.676 7.994,347.100 8.150 C 345.932 8.466,206.485 8.463,205.300 8.147 C 204.721 7.992,204.400 8.084,204.400 8.403 M346.939 24.437 C 348.629 24.893,351.200 27.180,351.200 28.228 C 351.200 28.543,351.399 28.800,351.643 28.800 C 351.886 28.800,351.984 29.064,351.860 29.387 C 351.736 29.710,351.807 30.081,352.017 30.211 C 352.519 30.521,352.540 121.482,352.038 121.667 C 351.839 121.740,351.614 122.250,351.538 122.800 C 351.462 123.350,350.935 124.250,350.367 124.800 C 349.799 125.350,349.216 126.126,349.070 126.525 C 348.925 126.924,348.640 127.148,348.437 127.023 C 348.234 126.898,348.002 126.993,347.922 127.234 C 347.841 127.476,347.286 127.702,346.688 127.737 C 346.090 127.772,345.600 127.938,345.600 128.106 C 345.600 128.274,328.590 128.364,307.800 128.306 C 287.010 128.248,270.000 128.299,270.000 128.420 C 270.000 128.662,267.140 129.798,266.767 129.704 C 266.639 129.671,266.220 130.357,265.836 131.227 C 265.430 132.148,264.958 132.698,264.707 132.543 C 264.470 132.396,264.389 132.459,264.528 132.683 C 264.829 133.171,263.623 136.400,263.139 136.400 C 262.953 136.400,262.800 136.664,262.800 136.986 C 262.800 137.811,259.545 144.000,259.111 144.000 C 258.914 144.000,258.865 144.181,259.002 144.403 C 259.139 144.624,258.970 144.913,258.628 145.045 C 258.285 145.176,258.104 145.445,258.226 145.642 C 258.348 145.839,258.257 146.000,258.024 146.000 C 257.791 146.000,257.600 146.360,257.600 146.800 C 257.600 147.240,257.390 147.600,257.133 147.600 C 256.877 147.600,256.782 147.715,256.922 147.856 C 257.063 147.996,256.733 148.640,256.189 149.286 C 255.645 149.933,255.200 150.628,255.200 150.831 C 255.200 151.034,254.983 151.155,254.719 151.100 C 254.454 151.045,254.229 151.321,254.219 151.713 C 254.208 152.106,254.007 152.556,253.771 152.713 C 253.535 152.871,253.225 153.315,253.083 153.700 C 252.941 154.085,252.549 154.400,252.213 154.400 C 251.876 154.400,251.600 154.701,251.600 155.069 C 251.600 155.873,250.470 157.200,249.785 157.200 C 249.328 157.200,248.197 158.399,245.519 161.724 C 243.678 164.009,243.409 163.605,243.324 158.434 C 243.283 155.885,243.149 152.720,243.026 151.400 C 242.904 150.080,242.758 148.460,242.702 147.800 C 242.646 147.140,242.453 146.373,242.274 146.096 C 242.095 145.819,242.057 145.250,242.190 144.830 C 242.324 144.411,242.231 143.943,241.984 143.790 C 241.734 143.635,241.641 143.089,241.775 142.556 C 241.922 141.971,241.840 141.600,241.564 141.600 C 241.283 141.600,241.208 141.224,241.364 140.600 C 241.522 139.973,241.446 139.600,241.161 139.600 C 240.904 139.600,240.797 139.253,240.916 138.800 C 241.031 138.361,240.954 137.895,240.746 137.767 C 240.538 137.638,240.477 137.188,240.611 136.766 C 240.756 136.308,240.665 136.000,240.384 136.000 C 240.126 136.000,240.018 135.730,240.145 135.400 C 240.271 135.070,240.222 134.800,240.034 134.800 C 239.847 134.800,239.562 134.395,239.400 133.900 C 239.239 133.405,239.068 132.910,239.020 132.800 C 238.972 132.690,238.728 132.105,238.476 131.500 C 238.225 130.895,237.835 130.400,237.610 130.400 C 237.384 130.400,237.200 130.136,237.200 129.813 C 237.200 129.479,236.963 129.316,236.652 129.436 C 236.350 129.551,235.831 129.374,235.499 129.042 C 235.167 128.710,234.784 128.550,234.648 128.686 C 234.511 128.822,234.400 128.768,234.400 128.567 C 234.400 128.349,228.844 128.247,220.760 128.315 C 211.611 128.393,206.951 128.292,206.610 128.008 C 206.330 127.776,205.809 127.699,205.451 127.836 C 205.091 127.974,204.800 127.887,204.800 127.643 C 204.800 127.399,204.528 127.200,204.197 127.200 C 203.209 127.200,201.093 125.115,201.693 124.734 C 202.068 124.496,202.028 124.411,201.543 124.406 C 200.836 124.400,200.254 123.360,200.622 122.764 C 200.746 122.564,200.702 122.400,200.524 122.400 C 200.346 122.400,200.200 101.520,200.200 76.000 C 200.200 50.480,200.354 29.600,200.543 29.600 C 200.731 29.600,200.782 29.330,200.655 29.000 C 200.529 28.670,200.610 28.400,200.836 28.400 C 201.062 28.400,201.149 28.241,201.029 28.047 C 200.623 27.390,202.533 25.496,204.460 24.646 L 206.376 23.800 275.837 23.898 C 324.999 23.967,345.777 24.125,346.939 24.437 M163.600 39.971 C 163.600 40.174,162.025 40.436,160.100 40.551 C 156.481 40.768,154.409 40.982,152.000 41.388 C 151.230 41.518,150.240 41.665,149.800 41.715 C 149.360 41.765,148.766 41.955,148.481 42.138 C 148.195 42.321,147.706 42.373,147.394 42.253 C 147.081 42.133,146.712 42.219,146.572 42.445 C 146.433 42.670,146.037 42.746,145.692 42.614 C 145.346 42.481,144.942 42.570,144.793 42.811 C 144.645 43.051,143.866 43.282,143.063 43.324 C 142.260 43.366,141.603 43.554,141.602 43.743 C 141.601 43.931,141.342 43.986,141.026 43.865 C 140.710 43.744,140.387 43.839,140.308 44.076 C 140.229 44.313,139.605 44.528,138.922 44.553 C 138.238 44.579,137.762 44.735,137.863 44.900 C 137.964 45.065,137.868 45.200,137.650 45.200 C 137.431 45.200,136.745 45.409,136.126 45.665 C 135.507 45.920,134.865 46.100,134.700 46.065 C 134.535 46.029,134.400 46.191,134.400 46.424 C 134.400 46.657,134.220 46.736,134.000 46.600 C 133.780 46.464,133.600 46.524,133.600 46.733 C 133.600 47.077,131.995 47.722,131.000 47.778 C 130.780 47.790,130.278 48.122,129.885 48.515 C 129.492 48.908,128.997 49.122,128.785 48.991 C 128.573 48.860,128.400 48.914,128.400 49.112 C 128.400 49.310,127.682 49.815,126.805 50.236 C 125.927 50.656,125.207 51.135,125.205 51.300 C 125.202 51.465,124.930 51.600,124.600 51.600 C 124.270 51.600,124.000 51.780,124.000 52.000 C 124.000 52.220,123.829 52.400,123.621 52.400 C 123.412 52.400,122.763 52.843,122.178 53.385 C 121.593 53.927,120.594 54.601,119.957 54.883 C 119.321 55.165,118.800 55.533,118.800 55.701 C 118.800 56.093,112.709 62.000,112.305 62.000 C 112.137 62.000,112.000 62.335,112.000 62.744 C 112.000 63.153,111.298 64.085,110.440 64.815 C 109.582 65.546,108.957 66.342,109.050 66.586 C 109.143 66.829,108.855 67.419,108.410 67.897 C 107.964 68.375,107.600 68.954,107.600 69.183 C 107.600 69.412,107.409 69.600,107.176 69.600 C 106.943 69.600,106.864 69.780,107.000 70.000 C 107.136 70.220,107.102 70.403,106.924 70.407 C 106.746 70.410,106.060 71.535,105.400 72.907 C 104.740 74.278,104.064 75.460,103.898 75.534 C 103.731 75.608,103.697 75.833,103.821 76.034 C 103.945 76.235,103.846 76.400,103.600 76.400 C 103.354 76.400,103.262 76.576,103.395 76.792 C 103.528 77.007,103.410 77.592,103.134 78.092 C 102.857 78.591,102.668 79.135,102.715 79.300 C 102.762 79.465,102.626 79.600,102.413 79.600 C 102.199 79.600,102.129 79.870,102.255 80.200 C 102.382 80.530,102.276 80.800,102.019 80.800 C 101.763 80.800,101.665 80.982,101.803 81.205 C 101.941 81.428,101.776 82.166,101.437 82.845 C 101.098 83.525,100.706 84.692,100.566 85.440 C 100.426 86.188,100.176 86.800,100.011 86.800 C 99.846 86.800,99.802 87.277,99.913 87.859 C 100.057 88.610,99.978 88.833,99.642 88.626 C 99.302 88.416,99.241 88.624,99.427 89.366 C 99.591 90.020,99.521 90.400,99.236 90.400 C 98.954 90.400,98.879 90.776,99.036 91.400 C 99.184 91.989,99.115 92.400,98.869 92.400 C 98.614 92.400,98.539 92.948,98.677 93.800 C 98.826 94.716,98.747 95.200,98.448 95.200 C 98.141 95.200,98.072 95.710,98.238 96.750 C 98.397 97.740,98.319 98.403,98.024 98.585 C 97.719 98.774,97.651 99.469,97.825 100.631 C 97.971 101.598,97.951 102.707,97.781 103.095 C 97.345 104.093,97.323 119.600,97.757 119.600 C 97.958 119.600,98.001 120.828,97.855 122.400 C 97.670 124.387,97.727 125.200,98.052 125.200 C 98.372 125.200,98.432 125.864,98.252 127.400 C 98.072 128.928,98.132 129.600,98.448 129.600 C 98.754 129.600,98.819 130.122,98.646 131.200 C 98.475 132.269,98.540 132.800,98.840 132.800 C 99.137 132.800,99.200 133.275,99.026 134.200 C 98.847 135.155,98.913 135.600,99.234 135.600 C 99.548 135.600,99.629 136.065,99.477 137.000 C 99.337 137.868,99.413 138.400,99.677 138.400 C 99.942 138.400,100.018 138.932,99.877 139.800 C 99.753 140.570,99.819 141.200,100.025 141.200 C 100.231 141.200,100.400 141.729,100.400 142.376 C 100.400 143.023,100.587 143.669,100.816 143.810 C 101.045 143.952,101.128 144.397,101.000 144.800 C 100.872 145.203,100.969 145.657,101.216 145.810 C 101.463 145.962,101.560 146.507,101.431 147.019 C 101.302 147.532,101.385 148.067,101.615 148.209 C 101.845 148.351,101.928 148.797,101.800 149.200 C 101.672 149.603,101.762 150.053,102.000 150.200 C 102.238 150.347,102.323 150.812,102.189 151.234 C 102.044 151.692,102.135 152.000,102.416 152.000 C 102.718 152.000,102.797 152.358,102.636 153.000 C 102.483 153.607,102.556 154.000,102.819 154.000 C 103.072 154.000,103.148 154.335,103.000 154.800 C 102.854 155.259,102.928 155.600,103.173 155.600 C 104.143 155.600,102.518 159.826,101.381 160.263 C 101.061 160.385,100.800 160.650,100.800 160.851 C 100.800 161.277,98.768 164.484,98.270 164.845 C 98.084 164.979,97.955 165.206,97.983 165.348 C 98.126 166.063,97.459 168.400,97.113 168.400 C 96.894 168.400,96.811 168.652,96.930 168.961 C 97.048 169.269,97.025 169.642,96.878 169.789 C 96.114 170.553,96.134 182.682,96.901 183.864 C 97.067 184.119,97.093 184.614,96.959 184.964 C 96.817 185.332,96.921 185.600,97.204 185.600 C 97.496 185.600,97.609 185.922,97.484 186.400 C 97.369 186.840,97.459 187.200,97.684 187.200 C 97.909 187.200,97.999 187.560,97.884 188.000 C 97.769 188.440,97.857 188.800,98.080 188.800 C 98.303 188.800,98.382 189.070,98.255 189.400 C 98.129 189.730,98.210 190.000,98.436 190.000 C 98.662 190.000,98.736 190.180,98.600 190.400 C 98.464 190.620,98.504 190.800,98.688 190.800 C 98.873 190.800,99.373 191.700,99.800 192.800 C 100.227 193.900,100.716 194.800,100.888 194.800 C 101.060 194.800,101.200 195.070,101.200 195.400 C 101.200 195.730,101.380 196.000,101.600 196.000 C 101.820 196.000,102.000 196.270,102.000 196.600 C 102.000 196.930,102.150 197.200,102.334 197.200 C 102.517 197.200,103.345 198.184,104.173 199.387 C 105.001 200.590,105.796 201.544,105.940 201.508 C 106.476 201.372,108.000 202.069,108.000 202.451 C 108.000 202.669,108.180 202.736,108.400 202.600 C 108.620 202.464,108.800 202.543,108.800 202.776 C 108.800 203.009,108.935 203.179,109.100 203.153 C 109.265 203.127,109.535 203.149,109.700 203.203 C 109.865 203.256,110.135 203.341,110.300 203.391 C 112.220 203.970,113.123 204.535,112.931 205.036 C 112.810 205.352,112.935 205.880,113.209 206.211 C 113.536 206.604,113.623 207.429,113.461 208.606 C 113.297 209.800,113.364 210.400,113.659 210.400 C 113.952 210.400,114.016 210.942,113.846 212.000 C 113.676 213.067,113.740 213.600,114.039 213.600 C 114.317 213.600,114.392 213.979,114.236 214.600 C 114.078 215.230,114.154 215.600,114.442 215.600 C 114.738 215.600,114.815 216.026,114.660 216.800 C 114.525 217.477,114.590 218.000,114.810 218.000 C 115.025 218.000,115.200 218.420,115.200 218.933 C 115.200 219.447,115.325 219.992,115.478 220.145 C 115.779 220.446,116.035 221.386,116.119 222.500 C 116.148 222.885,116.332 223.200,116.529 223.200 C 116.725 223.200,116.784 223.464,116.660 223.787 C 116.536 224.110,116.610 224.483,116.824 224.615 C 117.038 224.747,117.109 225.023,116.983 225.228 C 116.856 225.432,116.899 225.600,117.078 225.600 C 117.258 225.600,117.812 226.652,118.310 227.938 C 118.809 229.223,119.843 231.315,120.608 232.586 C 121.374 233.857,122.000 235.055,122.000 235.248 C 122.000 235.442,122.180 235.600,122.400 235.600 C 122.620 235.600,122.800 235.805,122.800 236.056 C 122.800 236.307,123.080 236.717,123.422 236.967 C 123.765 237.217,124.104 237.777,124.175 238.211 C 124.247 238.645,124.490 238.961,124.715 238.913 C 125.174 238.815,127.200 241.310,127.200 241.973 C 127.200 242.208,127.470 242.400,127.800 242.400 C 128.322 242.400,128.400 244.244,128.400 256.600 C 128.400 264.410,128.258 270.800,128.085 270.800 C 127.912 270.800,127.740 271.202,127.703 271.694 C 127.666 272.186,127.448 272.651,127.218 272.727 C 126.988 272.804,126.800 273.122,126.800 273.433 C 126.800 273.745,126.649 274.000,126.464 274.000 C 126.280 274.000,125.919 274.460,125.663 275.023 C 125.384 275.633,125.011 275.931,124.736 275.761 C 124.444 275.580,124.386 275.653,124.576 275.961 C 124.765 276.267,124.010 277.270,122.538 278.673 C 118.826 282.209,118.599 282.400,118.086 282.400 C 117.819 282.400,117.600 282.575,117.600 282.790 C 117.600 283.004,117.060 283.459,116.400 283.800 C 115.740 284.141,115.200 284.326,115.200 284.210 C 115.200 284.095,114.840 284.360,114.400 284.800 C 113.960 285.240,113.420 285.600,113.200 285.600 C 112.980 285.600,112.433 285.967,111.985 286.415 C 111.537 286.863,110.997 287.122,110.785 286.991 C 110.573 286.860,110.400 286.954,110.400 287.200 C 110.400 287.446,110.239 287.548,110.042 287.426 C 109.845 287.304,109.576 287.485,109.445 287.828 C 109.313 288.170,109.037 288.346,108.830 288.219 C 108.624 288.091,108.340 288.173,108.200 288.400 C 108.060 288.627,107.777 288.709,107.572 288.583 C 107.368 288.456,107.200 288.554,107.200 288.800 C 107.200 289.046,107.020 289.136,106.800 289.000 C 106.580 288.864,106.400 288.954,106.400 289.200 C 106.400 289.446,106.220 289.536,106.000 289.400 C 105.780 289.264,105.600 289.373,105.600 289.643 C 105.600 289.913,105.495 290.028,105.366 289.900 C 105.238 289.771,104.782 289.966,104.353 290.333 C 103.925 290.700,103.465 290.940,103.332 290.866 C 103.198 290.792,102.963 290.936,102.809 291.186 C 102.654 291.436,102.139 291.669,101.664 291.705 C 101.189 291.741,100.800 291.923,100.800 292.109 C 100.800 292.295,100.620 292.336,100.400 292.200 C 100.180 292.064,100.000 292.143,100.000 292.376 C 100.000 292.609,99.865 292.763,99.700 292.718 C 99.535 292.673,98.810 292.950,98.088 293.334 C 97.367 293.718,96.602 293.925,96.388 293.793 C 96.175 293.661,96.000 293.710,96.000 293.903 C 96.000 294.278,91.602 296.241,91.100 296.090 C 90.935 296.041,90.800 296.191,90.800 296.424 C 90.800 296.657,90.620 296.736,90.400 296.600 C 90.180 296.464,90.000 296.543,90.000 296.776 C 90.000 297.009,89.865 297.162,89.700 297.115 C 89.535 297.068,88.991 297.257,88.492 297.534 C 87.992 297.810,87.407 297.928,87.192 297.795 C 86.976 297.662,86.800 297.754,86.800 298.000 C 86.800 298.246,86.620 298.336,86.400 298.200 C 86.180 298.064,86.000 298.163,86.000 298.419 C 86.000 298.676,85.730 298.782,85.400 298.655 C 85.070 298.529,84.800 298.587,84.800 298.786 C 84.800 298.984,84.395 299.274,83.900 299.431 C 83.405 299.588,82.190 300.079,81.200 300.523 C 80.210 300.968,79.265 301.301,79.100 301.265 C 78.935 301.229,78.800 301.342,78.800 301.515 C 78.800 301.688,78.411 301.859,77.936 301.895 C 77.461 301.931,76.950 302.158,76.800 302.400 C 76.650 302.642,76.139 302.869,75.664 302.905 C 75.189 302.941,74.800 303.123,74.800 303.309 C 74.800 303.495,74.620 303.536,74.400 303.400 C 74.180 303.264,74.000 303.325,74.000 303.536 C 74.000 303.747,73.100 304.243,72.000 304.639 C 70.900 305.034,70.000 305.513,70.000 305.703 C 70.000 305.892,69.835 305.945,69.632 305.820 C 69.430 305.695,68.980 305.877,68.632 306.225 C 68.285 306.573,68.000 306.750,68.000 306.619 C 68.000 306.489,67.581 306.656,67.068 306.992 C 66.556 307.328,66.016 307.482,65.868 307.335 C 65.721 307.187,65.600 307.287,65.600 307.557 C 65.600 307.827,65.420 307.936,65.200 307.800 C 64.980 307.664,64.800 307.754,64.800 308.000 C 64.800 308.246,64.620 308.336,64.400 308.200 C 64.180 308.064,64.000 308.112,64.000 308.306 C 64.000 308.501,62.920 309.158,61.600 309.768 C 60.280 310.377,59.200 311.049,59.200 311.261 C 59.200 311.474,59.020 311.536,58.800 311.400 C 58.580 311.264,58.400 311.354,58.400 311.600 C 58.400 311.846,58.220 311.936,58.000 311.800 C 57.780 311.664,57.600 311.731,57.600 311.949 C 57.600 312.336,55.882 313.074,55.717 312.759 C 55.672 312.671,55.362 312.960,55.030 313.400 C 54.697 313.840,54.420 314.058,54.413 313.884 C 54.406 313.711,54.006 313.936,53.525 314.384 C 53.044 314.833,52.144 315.424,51.525 315.697 C 50.906 315.971,50.400 316.331,50.400 316.498 C 50.400 316.664,50.130 316.800,49.800 316.800 C 49.470 316.800,49.200 316.955,49.200 317.143 C 49.200 317.547,45.000 320.400,44.406 320.400 C 44.183 320.400,44.000 320.664,44.000 320.986 C 44.000 321.308,43.636 321.766,43.192 322.004 C 42.748 322.242,41.533 323.235,40.492 324.212 C 39.451 325.188,38.406 325.989,38.170 325.993 C 37.698 326.001,36.191 327.534,35.951 328.251 C 35.816 328.653,34.853 329.818,31.100 334.118 C 30.495 334.811,30.000 335.529,30.000 335.713 C 30.000 335.897,29.816 335.933,29.590 335.794 C 29.365 335.655,29.206 335.689,29.237 335.870 C 29.383 336.707,29.151 337.200,28.613 337.200 C 28.289 337.200,28.114 337.431,28.222 337.714 C 28.331 337.997,28.098 338.582,27.706 339.014 C 27.313 339.446,26.544 340.665,25.996 341.722 C 25.448 342.779,24.696 343.975,24.324 344.380 C 23.952 344.784,23.749 345.216,23.873 345.339 C 23.996 345.463,23.632 346.358,23.063 347.329 C 22.494 348.300,22.142 349.208,22.281 349.347 C 22.420 349.486,22.313 349.600,22.043 349.600 C 21.773 349.600,21.656 349.768,21.783 349.972 C 21.909 350.177,21.830 350.458,21.607 350.596 C 21.383 350.734,21.200 351.276,21.200 351.800 C 21.200 352.324,21.034 352.855,20.831 352.981 C 20.628 353.106,20.343 353.747,20.199 354.405 C 20.055 355.062,19.776 355.600,19.581 355.600 C 19.385 355.600,19.329 355.870,19.455 356.200 C 19.582 356.530,19.474 356.800,19.216 356.800 C 18.928 356.800,18.844 357.110,19.000 357.600 C 19.140 358.040,19.079 358.400,18.864 358.400 C 18.650 358.400,18.569 358.760,18.684 359.200 C 18.803 359.653,18.696 360.000,18.439 360.000 C 18.154 360.000,18.078 360.373,18.236 361.000 C 18.380 361.575,18.314 362.000,18.081 362.000 C 17.858 362.000,17.764 362.340,17.872 362.755 C 17.981 363.170,17.873 363.631,17.633 363.779 C 17.392 363.929,17.306 364.484,17.442 365.025 C 17.598 365.648,17.515 366.000,17.212 366.000 C 16.893 366.000,16.822 366.391,16.998 367.190 C 17.142 367.845,17.111 368.610,16.930 368.890 C 16.748 369.171,16.564 370.120,16.520 371.000 C 16.477 371.880,16.334 374.130,16.204 376.000 C 16.074 377.870,15.930 380.390,15.884 381.600 L 15.800 383.800 176.300 383.899 C 264.575 383.953,336.800 383.854,336.800 383.679 C 336.800 383.503,336.626 383.186,336.413 382.973 C 335.906 382.466,335.837 380.737,336.209 377.900 C 336.439 376.141,336.390 375.600,335.998 375.600 C 335.611 375.600,335.547 375.014,335.737 373.200 C 335.910 371.545,335.849 370.800,335.539 370.800 C 335.238 370.800,335.172 370.209,335.338 369.000 C 335.474 368.010,335.441 367.200,335.264 367.200 C 335.088 367.200,334.710 365.757,334.423 363.994 C 334.137 362.230,333.752 360.694,333.569 360.581 C 333.385 360.467,333.336 360.110,333.460 359.787 C 333.584 359.464,333.467 359.200,333.200 359.200 C 332.916 359.200,332.818 358.930,332.964 358.549 C 333.101 358.191,333.015 357.659,332.772 357.367 C 332.530 357.074,332.447 356.647,332.589 356.418 C 332.731 356.188,332.637 356.000,332.381 356.000 C 332.124 356.000,332.014 355.742,332.135 355.426 C 332.256 355.110,332.169 354.790,331.941 354.714 C 331.713 354.638,331.498 354.086,331.463 353.488 C 331.428 352.890,331.246 352.400,331.057 352.400 C 330.869 352.400,330.818 352.130,330.945 351.800 C 331.071 351.470,330.981 351.200,330.745 351.200 C 330.508 351.200,330.418 350.930,330.545 350.600 C 330.671 350.270,330.601 350.000,330.387 350.000 C 330.174 350.000,330.000 349.809,330.000 349.576 C 330.000 349.343,330.208 349.281,330.462 349.438 C 330.750 349.616,330.815 349.548,330.634 349.255 C 330.475 348.998,330.203 348.874,330.031 348.981 C 329.680 349.198,328.800 347.482,328.800 346.581 C 328.800 346.262,328.609 346.000,328.376 346.000 C 328.143 346.000,328.064 345.820,328.200 345.600 C 328.336 345.380,328.246 345.200,328.000 345.200 C 327.754 345.200,327.664 345.020,327.800 344.800 C 327.936 344.580,327.869 344.400,327.651 344.400 C 327.432 344.400,327.128 344.003,326.974 343.519 C 326.820 343.034,326.440 342.383,326.129 342.072 C 325.819 341.761,325.629 341.314,325.707 341.079 C 325.786 340.843,325.569 340.351,325.225 339.985 C 324.019 338.702,323.200 337.587,323.200 337.229 C 323.200 337.030,323.010 336.803,322.778 336.726 C 322.546 336.649,322.310 336.319,322.253 335.993 C 322.196 335.667,321.396 334.590,320.475 333.600 C 319.554 332.610,318.800 331.585,318.800 331.323 C 318.800 331.060,318.395 330.566,317.900 330.224 C 316.271 329.099,312.000 324.648,312.000 324.075 C 312.000 323.751,311.757 323.608,311.423 323.736 C 311.082 323.867,310.375 323.422,309.698 322.650 C 309.067 321.931,308.229 321.220,307.837 321.070 C 307.445 320.919,307.031 320.439,306.917 320.002 C 306.802 319.566,306.522 319.324,306.294 319.466 C 306.065 319.607,305.628 319.380,305.322 318.961 C 305.016 318.542,304.728 318.282,304.683 318.382 C 304.556 318.660,302.000 317.071,302.000 316.714 C 302.000 316.541,301.796 316.400,301.546 316.400 C 301.296 316.400,300.711 315.989,300.246 315.487 C 299.781 314.985,299.310 314.562,299.200 314.546 C 298.312 314.419,297.200 313.878,297.200 313.573 C 297.200 313.368,296.930 313.200,296.600 313.200 C 296.270 313.200,296.000 312.990,296.000 312.733 C 296.000 312.477,295.895 312.372,295.766 312.500 C 295.638 312.629,295.182 312.434,294.753 312.067 C 294.325 311.700,293.845 311.391,293.687 311.380 C 293.281 311.351,285.842 307.552,285.600 307.250 C 285.490 307.112,285.040 306.939,284.600 306.864 C 284.160 306.789,283.530 306.504,283.200 306.230 C 282.870 305.956,282.015 305.500,281.300 305.217 C 280.585 304.934,280.000 304.534,280.000 304.328 C 280.000 304.122,279.833 304.056,279.630 304.181 C 279.188 304.455,277.200 303.610,277.200 303.148 C 277.200 302.971,276.930 302.929,276.600 303.055 C 276.270 303.182,276.000 303.076,276.000 302.819 C 276.000 302.563,275.820 302.464,275.600 302.600 C 275.380 302.736,275.200 302.646,275.200 302.400 C 275.200 302.154,275.020 302.064,274.800 302.200 C 274.580 302.336,274.400 302.262,274.400 302.036 C 274.400 301.810,274.130 301.729,273.800 301.855 C 273.470 301.982,273.200 301.915,273.200 301.707 C 273.200 301.498,272.480 301.090,271.600 300.800 C 270.720 300.510,270.000 300.110,270.000 299.912 C 270.000 299.715,269.820 299.664,269.600 299.800 C 269.380 299.936,269.200 299.846,269.200 299.600 C 269.200 299.354,269.045 299.249,268.855 299.366 C 268.419 299.636,265.200 298.391,265.200 297.952 C 265.200 297.772,264.930 297.729,264.600 297.855 C 264.270 297.982,264.000 297.876,264.000 297.619 C 264.000 297.363,263.859 297.240,263.687 297.346 C 263.514 297.453,262.522 297.108,261.481 296.581 C 260.440 296.053,259.507 295.662,259.407 295.711 C 259.308 295.760,258.896 295.518,258.494 295.173 C 258.091 294.828,257.554 294.615,257.300 294.700 C 257.046 294.785,256.523 294.486,256.138 294.035 C 255.620 293.432,255.355 293.346,255.124 293.708 C 254.883 294.088,254.811 294.081,254.806 293.676 C 254.803 293.388,254.620 293.264,254.400 293.400 C 254.180 293.536,254.000 293.495,254.000 293.309 C 254.000 293.123,253.611 292.941,253.136 292.905 C 252.661 292.869,252.150 292.642,252.000 292.400 C 251.850 292.158,251.339 291.931,250.864 291.895 C 250.389 291.859,250.000 291.677,250.000 291.491 C 250.000 291.305,249.835 291.255,249.634 291.379 C 249.433 291.503,249.208 291.469,249.134 291.302 C 249.060 291.136,248.055 290.564,246.900 290.032 C 245.745 289.499,244.800 288.903,244.800 288.708 C 244.800 288.513,244.620 288.464,244.400 288.600 C 244.180 288.736,244.000 288.646,244.000 288.400 C 244.000 288.154,243.825 288.061,243.612 288.193 C 243.184 288.457,241.190 287.533,240.328 286.671 C 240.027 286.370,239.118 285.809,238.309 285.425 C 237.500 285.041,236.379 284.302,235.819 283.782 C 235.259 283.263,234.794 282.965,234.787 283.119 C 234.779 283.274,234.454 283.018,234.064 282.552 C 233.674 282.085,232.961 281.578,232.479 281.425 C 231.996 281.272,231.494 280.716,231.362 280.190 C 231.090 279.108,230.000 277.975,230.000 278.775 C 230.000 279.507,229.193 278.833,228.785 277.761 C 228.584 277.233,228.165 276.800,227.853 276.800 C 227.309 276.800,226.604 275.726,226.736 275.100 C 226.771 274.935,226.628 274.800,226.417 274.800 C 226.206 274.800,225.564 273.999,224.991 273.021 L 223.948 271.241 223.972 257.321 C 223.984 249.664,223.996 242.989,223.997 242.487 C 223.999 241.982,224.312 241.464,224.700 241.325 C 225.881 240.904,226.485 240.300,226.014 240.009 C 225.766 239.856,226.560 238.723,227.930 237.274 C 229.217 235.913,230.207 234.800,230.130 234.800 C 229.960 234.800,232.020 231.482,232.364 231.200 C 232.499 231.090,233.235 229.695,233.999 228.100 C 234.764 226.505,235.537 225.200,235.718 225.200 C 235.899 225.200,235.936 225.020,235.800 224.800 C 235.664 224.580,235.738 224.400,235.964 224.400 C 236.190 224.400,236.271 224.130,236.145 223.800 C 236.018 223.470,236.124 223.200,236.381 223.200 C 236.637 223.200,236.738 223.024,236.605 222.808 C 236.472 222.593,236.590 222.008,236.866 221.508 C 237.143 221.009,237.332 220.465,237.285 220.300 C 237.238 220.135,237.399 220.000,237.643 220.000 C 237.886 220.000,237.986 219.742,237.865 219.426 C 237.744 219.110,237.801 218.795,237.992 218.726 C 238.183 218.657,238.426 217.970,238.533 217.200 C 238.639 216.430,238.766 215.800,238.814 215.800 C 238.949 215.800,239.206 214.397,239.455 212.300 C 239.579 211.255,239.842 210.400,240.040 210.400 C 240.238 210.400,240.400 209.500,240.400 208.400 C 240.400 207.300,240.259 206.400,240.087 206.400 C 239.915 206.400,239.535 205.590,239.243 204.600 C 238.936 203.560,238.472 202.800,238.143 202.800 C 237.831 202.800,237.471 202.530,237.345 202.200 C 237.218 201.870,236.864 201.600,236.557 201.600 C 236.251 201.600,236.000 201.409,236.000 201.176 C 236.000 200.943,235.820 200.864,235.600 201.000 C 235.380 201.136,235.200 201.057,235.200 200.824 C 235.200 200.591,234.840 200.400,234.400 200.400 C 233.960 200.400,233.600 200.220,233.600 200.000 C 233.600 199.780,232.970 199.600,232.200 199.600 C 231.430 199.600,230.800 199.780,230.800 200.000 C 230.800 200.220,230.451 200.400,230.024 200.400 C 229.597 200.400,229.134 200.583,228.996 200.807 C 228.858 201.030,228.577 201.109,228.372 200.983 C 228.168 200.856,228.000 200.931,228.000 201.149 C 228.000 201.366,227.603 201.602,227.118 201.672 C 226.558 201.753,225.936 202.385,225.418 203.400 C 224.968 204.280,224.497 205.049,224.371 205.110 C 224.245 205.170,224.220 205.755,224.316 206.410 C 224.424 207.146,224.314 207.600,224.027 207.600 C 223.714 207.600,223.649 208.054,223.826 209.000 C 224.006 209.957,223.940 210.400,223.618 210.400 C 223.328 210.400,223.244 210.709,223.400 211.200 C 223.540 211.640,223.479 212.000,223.264 212.000 C 223.050 212.000,222.969 212.360,223.084 212.800 C 223.209 213.278,223.096 213.600,222.804 213.600 C 222.533 213.600,222.417 213.868,222.545 214.200 C 222.671 214.530,222.581 214.800,222.345 214.800 C 222.108 214.800,222.018 215.070,222.145 215.400 C 222.271 215.730,222.201 216.000,221.987 216.000 C 221.774 216.000,221.600 216.377,221.600 216.838 C 221.600 217.802,218.884 223.733,218.350 223.934 C 218.155 224.008,218.097 224.233,218.221 224.434 C 218.345 224.635,218.293 224.800,218.104 224.800 C 217.915 224.800,217.533 225.430,217.254 226.200 C 216.976 226.970,216.580 227.600,216.374 227.600 C 216.168 227.600,216.000 227.804,216.000 228.054 C 216.000 228.304,215.512 228.961,214.915 229.514 C 214.318 230.067,213.789 230.793,213.740 231.127 C 213.631 231.869,211.616 233.905,210.821 234.076 C 210.503 234.144,209.823 234.636,209.311 235.170 L 208.379 236.140 208.543 256.170 C 208.713 276.831,208.741 277.600,209.309 277.600 C 209.495 277.600,209.536 277.780,209.400 278.000 C 209.264 278.220,209.354 278.400,209.600 278.400 C 209.846 278.400,209.936 278.580,209.800 278.800 C 209.664 279.020,209.722 279.200,209.928 279.200 C 210.134 279.200,210.527 279.740,210.800 280.400 C 211.073 281.060,211.455 281.600,211.649 281.600 C 211.842 281.600,212.000 281.855,212.000 282.167 C 212.000 282.478,212.135 282.793,212.300 282.867 C 212.925 283.144,214.426 285.634,214.195 286.009 C 214.062 286.224,214.192 286.400,214.485 286.400 C 214.777 286.400,216.518 287.930,218.353 289.800 C 220.189 291.670,221.815 293.200,221.967 293.200 C 222.119 293.200,222.904 293.805,223.711 294.544 C 224.518 295.283,225.269 295.798,225.380 295.687 C 225.491 295.576,225.695 295.781,225.833 296.143 C 225.972 296.504,226.426 296.800,226.843 296.800 C 227.259 296.800,227.600 296.980,227.600 297.200 C 227.600 297.420,227.870 297.600,228.200 297.600 C 228.530 297.600,228.800 297.780,228.800 298.000 C 228.800 298.220,229.070 298.400,229.400 298.400 C 229.730 298.400,230.000 298.568,230.000 298.773 C 230.000 298.978,230.363 299.261,230.806 299.402 C 231.249 299.543,231.491 299.852,231.344 300.091 C 231.191 300.338,231.262 300.409,231.508 300.257 C 232.016 299.943,234.000 300.764,234.000 301.288 C 234.000 301.485,234.180 301.536,234.400 301.400 C 234.620 301.264,234.800 301.354,234.800 301.600 C 234.800 301.846,234.980 301.936,235.200 301.800 C 235.420 301.664,235.600 301.724,235.600 301.933 C 235.600 302.142,236.365 302.617,237.300 302.988 C 240.609 304.301,244.400 306.157,244.400 306.464 C 244.400 306.635,244.647 306.680,244.948 306.564 C 245.250 306.449,245.747 306.604,246.052 306.909 C 246.357 307.214,246.810 307.397,247.057 307.314 C 247.305 307.232,247.777 307.434,248.106 307.763 C 248.435 308.092,248.816 308.250,248.952 308.114 C 249.089 307.978,249.200 308.107,249.200 308.400 C 249.200 308.693,249.318 308.815,249.463 308.670 C 249.608 308.525,249.923 308.556,250.163 308.738 C 250.403 308.920,251.635 309.480,252.900 309.981 C 254.165 310.483,255.200 311.046,255.200 311.234 C 255.200 311.421,255.470 311.471,255.800 311.345 C 256.130 311.218,256.400 311.324,256.400 311.581 C 256.400 311.837,256.576 311.938,256.792 311.805 C 257.007 311.672,257.592 311.790,258.092 312.066 C 258.591 312.343,259.135 312.532,259.300 312.485 C 259.465 312.438,259.600 312.591,259.600 312.824 C 259.600 313.057,259.780 313.136,260.000 313.000 C 260.220 312.864,260.400 312.938,260.400 313.164 C 260.400 313.390,260.670 313.471,261.000 313.345 C 261.330 313.218,261.600 313.285,261.600 313.493 C 261.600 313.702,262.320 314.110,263.200 314.400 C 264.080 314.690,264.800 315.090,264.800 315.288 C 264.800 315.485,264.980 315.536,265.200 315.400 C 265.420 315.264,265.600 315.354,265.600 315.600 C 265.600 315.846,265.775 315.939,265.988 315.807 C 266.202 315.675,266.967 315.882,267.688 316.266 C 268.410 316.650,269.135 316.927,269.300 316.882 C 269.465 316.837,269.600 316.991,269.600 317.224 C 269.600 317.457,269.780 317.536,270.000 317.400 C 270.220 317.264,270.400 317.338,270.400 317.564 C 270.400 317.790,270.647 317.880,270.948 317.764 C 271.250 317.649,271.745 317.797,272.048 318.094 C 272.352 318.391,273.185 318.873,273.900 319.165 C 274.615 319.458,275.200 319.866,275.200 320.072 C 275.200 320.278,275.380 320.336,275.600 320.200 C 275.820 320.064,276.000 320.154,276.000 320.400 C 276.000 320.646,276.168 320.744,276.373 320.617 C 276.827 320.336,279.600 321.609,279.600 322.098 C 279.600 322.290,279.780 322.336,280.000 322.200 C 280.220 322.064,280.400 322.154,280.400 322.400 C 280.400 322.646,280.591 322.729,280.825 322.584 C 281.059 322.440,281.554 322.583,281.925 322.901 C 282.296 323.220,284.085 324.263,285.900 325.218 C 287.715 326.173,289.200 327.099,289.200 327.277 C 289.200 327.455,289.470 327.600,289.800 327.600 C 290.130 327.600,290.400 327.780,290.400 328.000 C 290.400 328.220,290.584 328.400,290.809 328.400 C 291.626 328.400,294.400 330.523,294.406 331.153 C 294.410 331.611,294.503 331.658,294.721 331.314 C 294.946 330.960,295.342 331.096,296.177 331.814 C 296.808 332.356,297.476 332.800,297.662 332.800 C 297.848 332.800,298.000 333.070,298.000 333.400 C 298.000 333.730,298.265 334.000,298.588 334.000 C 298.911 334.000,299.570 334.533,300.052 335.184 C 300.533 335.836,301.067 336.282,301.239 336.176 C 301.652 335.921,306.000 340.391,306.000 341.071 C 306.000 341.362,306.264 341.600,306.586 341.600 C 307.238 341.600,308.115 342.952,307.719 343.347 C 307.580 343.486,307.767 343.600,308.133 343.600 C 308.733 343.600,308.981 344.053,308.847 344.900 C 308.821 345.065,308.965 345.200,309.166 345.200 C 309.601 345.200,312.126 349.197,311.696 349.206 C 311.533 349.209,311.601 349.344,311.846 349.506 C 312.535 349.960,314.060 353.179,313.792 353.614 C 313.660 353.826,313.738 354.000,313.964 354.000 C 314.190 354.000,314.271 354.270,314.145 354.600 C 314.018 354.930,314.133 355.200,314.400 355.200 C 314.675 355.200,314.782 355.470,314.647 355.821 C 314.516 356.162,314.578 356.337,314.784 356.210 C 314.991 356.082,315.279 356.615,315.425 357.393 C 315.571 358.172,315.853 358.909,316.052 359.032 C 316.251 359.155,316.317 359.410,316.200 359.600 C 316.083 359.790,316.162 360.053,316.376 360.185 C 316.590 360.317,316.664 360.690,316.540 361.013 C 316.416 361.336,316.535 361.600,316.804 361.600 C 317.096 361.600,317.209 361.922,317.084 362.400 C 316.969 362.840,317.059 363.200,317.284 363.200 C 317.509 363.200,317.599 363.560,317.484 364.000 C 317.369 364.440,317.451 364.800,317.666 364.800 C 317.881 364.800,318.005 365.205,317.941 365.700 C 317.877 366.195,317.965 366.825,318.136 367.100 C 318.307 367.375,318.336 367.780,318.200 368.000 C 317.692 368.822,34.083 368.523,33.918 367.700 C 33.840 367.315,33.999 366.370,34.271 365.600 C 34.543 364.830,34.773 363.795,34.782 363.300 C 34.792 362.805,34.963 362.400,35.163 362.400 C 35.362 362.400,35.431 362.040,35.316 361.600 C 35.191 361.122,35.304 360.800,35.596 360.800 C 35.867 360.800,35.983 360.532,35.855 360.200 C 35.729 359.870,35.819 359.600,36.055 359.600 C 36.292 359.600,36.389 359.348,36.270 359.039 C 36.152 358.731,36.162 358.371,36.294 358.240 C 36.425 358.109,36.585 357.509,36.649 356.906 C 36.713 356.304,36.943 355.752,37.160 355.680 C 37.377 355.608,37.456 355.290,37.335 354.974 C 37.214 354.658,37.324 354.400,37.581 354.400 C 37.837 354.400,37.944 354.232,37.817 354.028 C 37.691 353.823,37.770 353.542,37.993 353.404 C 38.217 353.266,38.400 352.803,38.400 352.376 C 38.400 351.949,38.591 351.600,38.824 351.600 C 39.057 351.600,39.156 351.453,39.045 351.273 C 38.934 351.093,39.184 350.700,39.600 350.400 C 40.016 350.100,40.264 349.704,40.150 349.520 C 39.933 349.167,41.540 346.295,42.083 346.067 C 42.257 345.993,42.400 345.698,42.400 345.409 C 42.400 345.121,42.681 344.778,43.025 344.646 C 43.369 344.514,43.542 344.230,43.410 344.016 C 43.277 343.802,43.536 343.397,43.984 343.117 C 44.433 342.837,44.800 342.440,44.800 342.236 C 44.800 341.770,51.795 334.800,52.263 334.800 C 52.453 334.800,52.832 334.440,53.107 334.000 C 53.382 333.560,53.869 333.200,54.189 333.200 C 54.510 333.200,54.972 332.826,55.217 332.369 C 55.471 331.893,55.905 331.631,56.231 331.756 C 56.544 331.877,56.800 331.784,56.800 331.552 C 56.800 331.013,58.440 329.631,59.100 329.613 C 59.375 329.606,59.600 329.420,59.600 329.200 C 59.600 328.980,59.870 328.800,60.200 328.800 C 60.530 328.800,60.800 328.620,60.800 328.400 C 60.800 328.180,61.070 328.000,61.400 328.000 C 61.730 328.000,62.000 327.832,62.000 327.627 C 62.000 327.288,62.765 326.913,63.800 326.744 C 64.020 326.709,64.380 326.460,64.600 326.191 C 64.820 325.923,66.350 325.005,68.000 324.152 C 69.650 323.298,71.090 322.492,71.200 322.360 C 71.658 321.810,73.245 321.181,73.608 321.405 C 73.824 321.538,74.000 321.427,74.000 321.157 C 74.000 320.887,74.111 320.778,74.248 320.914 C 74.384 321.050,74.767 320.890,75.099 320.558 C 75.431 320.226,75.959 320.052,76.272 320.172 C 76.585 320.293,76.744 320.234,76.626 320.042 C 76.409 319.691,78.738 318.527,79.300 318.705 C 79.465 318.757,79.600 318.609,79.600 318.376 C 79.600 318.143,79.780 318.064,80.000 318.200 C 80.220 318.336,80.400 318.295,80.400 318.109 C 80.400 317.923,80.762 317.743,81.204 317.710 C 81.646 317.676,82.299 317.358,82.656 317.002 C 83.012 316.645,83.550 316.449,83.852 316.564 C 84.153 316.680,84.400 316.590,84.400 316.364 C 84.400 316.138,84.580 316.064,84.800 316.200 C 85.020 316.336,85.200 316.257,85.200 316.024 C 85.200 315.791,85.399 315.600,85.642 315.600 C 85.885 315.600,86.950 315.165,88.009 314.633 C 89.067 314.102,90.038 313.772,90.167 313.900 C 90.295 314.028,90.400 313.923,90.400 313.667 C 90.400 313.410,90.535 313.226,90.700 313.257 C 90.865 313.289,91.540 313.107,92.200 312.853 C 92.860 312.599,93.560 312.409,93.755 312.430 C 93.951 312.451,94.221 312.311,94.355 312.119 C 94.721 311.597,98.058 310.389,98.455 310.634 C 98.645 310.751,98.800 310.646,98.800 310.400 C 98.800 310.154,98.980 310.064,99.200 310.200 C 99.420 310.336,99.600 310.257,99.600 310.024 C 99.600 309.791,99.870 309.600,100.200 309.600 C 100.530 309.600,100.800 309.420,100.800 309.200 C 100.800 308.980,100.935 308.821,101.100 308.847 C 101.965 308.984,102.810 308.733,103.368 308.174 C 103.712 307.830,104.175 307.661,104.397 307.798 C 104.619 307.935,104.800 307.846,104.800 307.600 C 104.800 307.354,104.980 307.264,105.200 307.400 C 105.420 307.536,105.600 307.446,105.600 307.200 C 105.600 306.954,105.765 306.855,105.966 306.979 C 106.167 307.103,106.395 307.016,106.472 306.785 C 106.549 306.554,107.014 306.334,107.506 306.297 C 107.998 306.260,108.400 306.069,108.400 305.872 C 108.400 305.675,108.670 305.618,109.000 305.745 C 109.330 305.871,109.600 305.831,109.600 305.656 C 109.600 305.480,110.545 304.901,111.700 304.368 C 112.855 303.836,113.860 303.264,113.934 303.098 C 114.008 302.931,114.233 302.897,114.434 303.021 C 114.635 303.145,114.800 303.046,114.800 302.800 C 114.800 302.554,114.980 302.464,115.200 302.600 C 115.420 302.736,115.600 302.646,115.600 302.400 C 115.600 302.154,115.780 302.064,116.000 302.200 C 116.220 302.336,116.400 302.278,116.400 302.072 C 116.400 301.673,118.794 300.545,119.300 300.705 C 119.465 300.757,119.600 300.648,119.600 300.463 C 119.600 300.278,120.230 299.787,121.000 299.372 C 121.770 298.957,122.400 298.513,122.400 298.384 C 122.400 298.255,123.023 297.905,123.783 297.607 C 124.544 297.308,125.263 296.813,125.381 296.507 C 125.498 296.200,125.757 296.050,125.955 296.172 C 126.154 296.295,126.427 296.108,126.561 295.756 C 126.696 295.405,127.057 295.213,127.364 295.331 C 127.693 295.457,128.004 295.229,128.123 294.772 C 128.234 294.348,128.591 294.000,128.917 294.000 C 129.242 294.000,129.803 293.550,130.163 293.000 C 130.524 292.450,131.143 292.000,131.539 292.000 C 131.936 292.000,132.683 291.550,133.200 291.000 C 133.717 290.450,133.976 290.000,133.777 290.000 C 133.577 290.000,134.091 289.540,134.917 288.979 C 135.744 288.417,136.332 287.813,136.223 287.637 C 136.114 287.461,136.514 286.767,137.112 286.096 C 137.711 285.425,138.830 283.871,139.600 282.643 C 140.370 281.415,141.270 280.394,141.600 280.374 C 142.001 280.349,142.036 280.271,141.708 280.138 C 141.348 279.992,141.450 279.489,142.088 278.269 C 142.569 277.351,142.925 276.465,142.881 276.300 C 142.836 276.135,142.980 276.000,143.200 276.000 C 143.420 276.000,143.579 275.865,143.553 275.700 C 143.527 275.535,143.529 275.310,143.558 275.200 C 144.022 273.446,143.675 237.220,143.190 236.747 C 142.865 236.430,141.925 235.661,141.100 235.038 C 140.275 234.415,139.600 233.656,139.600 233.353 C 139.600 233.049,139.330 232.800,139.000 232.800 C 138.664 232.800,138.400 232.443,138.400 231.987 C 138.400 231.541,138.130 231.071,137.800 230.945 C 137.470 230.818,137.200 230.464,137.200 230.157 C 137.200 229.851,137.009 229.600,136.776 229.600 C 136.543 229.600,136.464 229.420,136.600 229.200 C 136.736 228.980,136.669 228.800,136.452 228.800 C 135.943 228.800,132.771 223.070,132.691 222.007 C 132.657 221.563,132.469 221.200,132.272 221.200 C 132.075 221.200,132.018 220.930,132.145 220.600 C 132.271 220.270,132.190 220.000,131.964 220.000 C 131.738 220.000,131.655 219.835,131.779 219.634 C 131.903 219.433,131.820 219.207,131.594 219.131 C 131.368 219.056,131.142 218.411,131.092 217.698 C 131.041 216.985,130.846 216.401,130.657 216.401 C 130.469 216.400,130.418 216.130,130.545 215.800 C 130.671 215.470,130.581 215.200,130.344 215.200 C 130.081 215.200,130.014 214.799,130.173 214.166 C 130.341 213.496,130.286 213.223,130.016 213.390 C 129.772 213.541,129.600 213.251,129.600 212.690 C 129.600 212.164,129.476 211.610,129.325 211.459 C 129.062 211.196,128.826 210.080,128.763 208.800 C 128.746 208.470,128.625 207.930,128.492 207.600 C 128.083 206.577,127.937 204.418,127.867 198.339 L 127.800 192.478 125.700 192.695 C 124.157 192.854,123.600 192.777,123.600 192.405 C 123.600 192.037,123.160 191.968,122.000 192.154 C 121.120 192.294,120.400 192.257,120.400 192.071 C 120.400 191.885,120.161 191.733,119.869 191.733 C 118.842 191.733,115.621 189.210,115.859 188.592 C 115.998 188.229,115.850 188.000,115.476 188.000 C 115.141 188.000,114.628 187.460,114.336 186.800 C 114.044 186.140,113.658 185.600,113.479 185.600 C 113.299 185.600,113.256 185.432,113.383 185.228 C 113.509 185.023,113.427 184.740,113.200 184.600 C 112.973 184.460,112.883 184.190,113.000 184.000 C 113.117 183.810,113.023 183.538,112.790 183.394 C 112.558 183.250,112.477 182.788,112.611 182.366 C 112.751 181.925,112.665 181.600,112.409 181.600 C 112.120 181.600,112.053 181.126,112.218 180.246 C 112.371 179.430,112.299 178.785,112.036 178.622 C 111.521 178.304,111.440 174.400,111.949 174.400 C 112.141 174.400,112.278 173.664,112.255 172.764 C 112.223 171.559,112.422 170.974,113.006 170.546 C 113.443 170.227,113.742 169.928,113.672 169.883 C 113.267 169.621,114.539 167.489,115.205 167.315 C 115.642 167.200,116.000 166.986,116.000 166.839 C 116.000 166.692,116.980 166.042,118.178 165.394 C 120.370 164.208,121.667 162.536,120.807 162.004 C 120.568 161.857,120.488 161.435,120.629 161.068 C 120.774 160.692,120.692 160.400,120.443 160.400 C 120.199 160.400,120.000 160.119,120.000 159.776 C 120.000 159.433,120.178 159.263,120.395 159.397 C 120.624 159.539,120.688 159.373,120.546 159.004 C 120.411 158.653,120.194 158.473,120.063 158.604 C 119.932 158.735,119.592 157.887,119.308 156.721 C 119.024 155.554,118.688 154.240,118.560 153.800 C 118.433 153.360,118.291 152.727,118.245 152.393 C 118.200 152.059,118.035 151.580,117.880 151.329 C 117.724 151.078,117.700 150.604,117.826 150.277 C 117.952 149.949,117.859 149.560,117.621 149.413 C 117.382 149.265,117.295 148.969,117.428 148.755 C 117.560 148.540,117.459 148.111,117.201 147.802 C 116.944 147.492,116.851 146.870,116.994 146.419 C 117.156 145.909,117.076 145.600,116.782 145.600 C 116.484 145.600,116.374 145.155,116.485 144.400 C 116.582 143.740,116.498 143.200,116.299 143.200 C 116.100 143.200,116.055 142.660,116.200 142.000 C 116.378 141.189,116.309 140.800,115.985 140.800 C 115.691 140.800,115.580 140.416,115.698 139.800 C 115.803 139.250,115.711 138.800,115.493 138.800 C 115.256 138.800,115.200 138.161,115.354 137.200 C 115.526 136.120,115.461 135.600,115.154 135.600 C 114.844 135.600,114.782 135.076,114.958 133.971 C 115.108 133.035,115.065 132.436,114.858 132.564 C 114.660 132.686,114.390 131.755,114.257 130.493 C 114.125 129.232,113.921 127.390,113.805 126.400 C 112.895 118.635,112.888 105.435,113.791 99.600 C 113.910 98.830,114.115 97.435,114.246 96.500 C 114.377 95.565,114.649 94.800,114.850 94.800 C 115.051 94.800,115.102 94.350,114.964 93.800 C 114.808 93.176,114.883 92.800,115.164 92.800 C 115.446 92.800,115.521 92.424,115.364 91.800 C 115.220 91.225,115.286 90.800,115.519 90.800 C 115.742 90.800,115.831 90.440,115.716 90.000 C 115.601 89.560,115.691 89.200,115.916 89.200 C 116.141 89.200,116.231 88.840,116.116 88.400 C 116.001 87.960,116.102 87.600,116.341 87.600 C 116.580 87.600,116.671 87.330,116.545 87.000 C 116.418 86.670,116.533 86.400,116.800 86.400 C 117.067 86.400,117.182 86.130,117.055 85.800 C 116.929 85.470,116.994 85.200,117.200 85.200 C 117.406 85.200,117.471 84.930,117.345 84.600 C 117.218 84.270,117.324 84.000,117.581 84.000 C 117.837 84.000,117.954 83.849,117.840 83.665 C 117.649 83.356,119.404 79.654,119.956 79.200 C 120.090 79.090,120.208 78.820,120.218 78.600 C 120.249 77.890,121.317 76.000,121.688 76.000 C 121.885 76.000,121.935 75.819,121.798 75.597 C 121.661 75.376,121.831 75.086,122.175 74.954 C 122.519 74.822,122.800 74.473,122.800 74.177 C 122.800 73.882,123.039 73.496,123.330 73.320 C 123.622 73.144,123.983 72.668,124.132 72.262 C 124.282 71.856,124.773 71.427,125.225 71.309 C 125.707 71.183,125.959 70.871,125.837 70.553 C 125.718 70.241,126.246 69.541,127.081 68.905 C 127.880 68.297,129.026 67.284,129.628 66.653 C 130.231 66.022,130.921 65.627,131.162 65.776 C 131.403 65.925,131.600 65.840,131.600 65.588 C 131.600 65.021,133.218 63.631,133.900 63.613 C 134.175 63.606,134.400 63.409,134.400 63.176 C 134.400 62.943,134.580 62.864,134.800 63.000 C 135.020 63.136,135.200 63.046,135.200 62.800 C 135.200 62.554,135.380 62.464,135.600 62.600 C 135.820 62.736,136.000 62.690,136.000 62.498 C 136.000 62.009,138.773 60.736,139.227 61.017 C 139.432 61.144,139.600 61.071,139.600 60.856 C 139.600 60.470,143.517 58.957,144.100 59.117 C 144.265 59.163,144.400 59.001,144.400 58.757 C 144.400 58.514,144.664 58.416,144.987 58.540 C 145.310 58.664,145.670 58.610,145.788 58.420 C 145.905 58.230,146.361 58.169,146.800 58.284 C 147.253 58.403,147.600 58.296,147.600 58.039 C 147.600 57.754,147.973 57.678,148.600 57.836 C 149.242 57.997,149.600 57.918,149.600 57.616 C 149.600 57.335,149.908 57.244,150.366 57.389 C 150.788 57.523,151.258 57.429,151.412 57.180 C 151.585 56.901,152.208 56.825,153.046 56.982 C 153.960 57.154,154.400 57.084,154.400 56.767 C 154.400 56.434,154.985 56.375,156.400 56.562 C 157.659 56.729,158.400 56.677,158.400 56.422 C 158.400 56.156,160.122 56.104,163.400 56.270 C 167.304 56.468,168.400 56.412,168.400 56.016 C 168.400 55.680,168.805 55.569,169.600 55.685 C 170.260 55.782,170.800 55.693,170.800 55.488 C 170.800 55.282,171.079 55.222,171.421 55.353 C 171.762 55.484,171.940 55.426,171.815 55.224 C 171.690 55.023,171.932 54.749,172.352 54.615 C 172.772 54.482,173.534 53.763,174.045 53.017 C 174.556 52.271,175.113 51.746,175.282 51.851 C 175.452 51.956,175.484 51.762,175.353 51.421 C 175.222 51.079,175.282 50.800,175.488 50.800 C 175.693 50.800,175.782 50.260,175.685 49.600 C 175.580 48.880,175.687 48.400,175.955 48.400 C 176.200 48.400,176.400 48.130,176.400 47.800 C 176.400 47.470,176.199 47.200,175.953 47.200 C 175.693 47.200,175.586 46.784,175.698 46.200 C 175.803 45.650,175.766 45.200,175.615 45.200 C 175.465 45.200,174.937 44.390,174.443 43.400 C 173.843 42.199,173.287 41.600,172.772 41.600 C 172.347 41.600,172.000 41.409,172.000 41.176 C 172.000 40.943,171.820 40.864,171.600 41.000 C 171.380 41.136,171.200 41.057,171.200 40.824 C 171.200 40.591,170.840 40.400,170.400 40.400 C 169.960 40.400,169.600 40.220,169.600 40.000 C 169.600 39.769,168.333 39.600,166.600 39.600 C 164.950 39.600,163.600 39.767,163.600 39.971 M232.400 56.200 L 232.400 64.000 260.000 64.000 L 287.600 64.000 287.600 56.200 L 287.600 48.400 260.000 48.400 L 232.400 48.400 232.400 56.200 M303.900 48.665 C 304.274 48.816,304.400 50.708,304.400 56.200 C 304.400 61.692,304.274 63.584,303.900 63.735 C 303.625 63.846,308.845 63.951,315.500 63.968 L 327.600 64.000 327.600 56.200 L 327.600 48.400 315.500 48.432 C 308.845 48.449,303.625 48.554,303.900 48.665 M232.400 96.200 L 232.400 104.000 244.500 103.968 C 251.155 103.951,256.375 103.846,256.100 103.735 C 255.726 103.584,255.600 101.692,255.600 96.200 C 255.600 90.708,255.726 88.816,256.100 88.665 C 256.375 88.554,251.155 88.449,244.500 88.432 L 232.400 88.400 232.400 96.200 M272.400 96.200 L 272.400 104.000 300.000 104.000 L 327.600 104.000 327.600 96.200 L 327.600 88.400 300.000 88.400 L 272.400 88.400 272.400 96.200 " stroke="none" fill="#040404" fill-rule="evenodd"></path><path id="path4" d="" stroke="none" fill="#281050" fill-rule="evenodd"></path></g></svg>